<mxfile host="app.diagrams.net" agent="Mozilla/5.0 (Windows NT 10.0; Win64; x64; rv:137.0) Gecko/20100101 Firefox/137.0" version="26.1.1">
  <diagram name="Page-1" id="0uyCoUg3WgJZ_EARz1ru">
    <mxGraphModel dx="1666" dy="1388" grid="0" gridSize="10" guides="1" tooltips="1" connect="1" arrows="1" fold="1" page="0" pageScale="1" pageWidth="850" pageHeight="1100" background="none" math="0" shadow="0" adaptiveColors="auto">
      <root>
        <mxCell id="0" />
        <mxCell id="1" parent="0" />
        <mxCell id="7E4y---loc7PawPUPzIR-101" value="book" style="shape=table;startSize=32;container=1;collapsible=1;childLayout=tableLayout;fixedRows=1;rowLines=0;fontStyle=1;align=center;resizeLast=1;html=1;rounded=1;shadow=1;labelBackgroundColor=none;arcSize=15;fontFamily=Times New Roman;swimlaneFillColor=none;strokeWidth=0;fillColor=default;gradientColor=#333333;strokeColor=#d6b656;" vertex="1" parent="1">
          <mxGeometry x="-213.00000000000006" y="-537" width="369.2142857142858" height="302.43134622012883" as="geometry" />
        </mxCell>
        <mxCell id="7E4y---loc7PawPUPzIR-102" value="" style="shape=tableRow;horizontal=0;startSize=0;swimlaneHead=0;swimlaneBody=0;fillColor=none;collapsible=0;dropTarget=0;points=[[0,0.5],[1,0.5]];portConstraint=eastwest;top=0;left=0;right=0;bottom=1;rounded=1;labelBackgroundColor=none;strokeColor=#788AA3;fontColor=#46495D;fontFamily=Times New Roman;swimlaneFillColor=none;strokeWidth=0;" vertex="1" parent="7E4y---loc7PawPUPzIR-101">
          <mxGeometry y="32" width="369.2142857142858" height="30" as="geometry" />
        </mxCell>
        <mxCell id="7E4y---loc7PawPUPzIR-103" value="PK" style="shape=partialRectangle;connectable=0;fillColor=none;top=0;left=0;bottom=0;right=0;fontStyle=1;overflow=hidden;whiteSpace=wrap;html=1;rounded=1;labelBackgroundColor=none;strokeColor=#788AA3;fontColor=#46495D;fontFamily=Times New Roman;swimlaneFillColor=none;strokeWidth=0;" vertex="1" parent="7E4y---loc7PawPUPzIR-102">
          <mxGeometry width="45.8129483570774" height="30" as="geometry">
            <mxRectangle width="45.8129483570774" height="30" as="alternateBounds" />
          </mxGeometry>
        </mxCell>
        <mxCell id="7E4y---loc7PawPUPzIR-104" value="book_id" style="shape=partialRectangle;connectable=0;fillColor=none;top=0;left=0;bottom=0;right=0;align=left;spacingLeft=6;fontStyle=5;overflow=hidden;whiteSpace=wrap;html=1;rounded=1;labelBackgroundColor=none;strokeColor=#788AA3;fontColor=#46495D;fontFamily=Times New Roman;swimlaneFillColor=none;strokeWidth=0;" vertex="1" parent="7E4y---loc7PawPUPzIR-102">
          <mxGeometry x="45.8129483570774" width="323.4013373572084" height="30" as="geometry">
            <mxRectangle width="323.4013373572084" height="30" as="alternateBounds" />
          </mxGeometry>
        </mxCell>
        <mxCell id="7E4y---loc7PawPUPzIR-105" value="" style="shape=tableRow;horizontal=0;startSize=0;swimlaneHead=0;swimlaneBody=0;fillColor=none;collapsible=0;dropTarget=0;points=[[0,0.5],[1,0.5]];portConstraint=eastwest;top=0;left=0;right=0;bottom=0;rounded=1;labelBackgroundColor=none;strokeColor=#788AA3;fontColor=#46495D;fontFamily=Times New Roman;swimlaneFillColor=none;strokeWidth=0;" vertex="1" parent="7E4y---loc7PawPUPzIR-101">
          <mxGeometry y="62" width="369.2142857142858" height="30" as="geometry" />
        </mxCell>
        <mxCell id="7E4y---loc7PawPUPzIR-106" value="" style="shape=partialRectangle;connectable=0;fillColor=none;top=0;left=0;bottom=0;right=0;editable=1;overflow=hidden;whiteSpace=wrap;html=1;rounded=1;labelBackgroundColor=none;strokeColor=#788AA3;fontColor=#46495D;fontFamily=Times New Roman;swimlaneFillColor=none;strokeWidth=0;" vertex="1" parent="7E4y---loc7PawPUPzIR-105">
          <mxGeometry width="45.8129483570774" height="30" as="geometry">
            <mxRectangle width="45.8129483570774" height="30" as="alternateBounds" />
          </mxGeometry>
        </mxCell>
        <mxCell id="7E4y---loc7PawPUPzIR-107" value="book_id" style="shape=partialRectangle;connectable=0;fillColor=none;top=0;left=0;bottom=0;right=0;align=left;spacingLeft=6;overflow=hidden;whiteSpace=wrap;html=1;rounded=1;labelBackgroundColor=none;strokeColor=#788AA3;fontColor=#46495D;fontFamily=Times New Roman;swimlaneFillColor=none;strokeWidth=0;" vertex="1" parent="7E4y---loc7PawPUPzIR-105">
          <mxGeometry x="45.8129483570774" width="323.4013373572084" height="30" as="geometry">
            <mxRectangle width="323.4013373572084" height="30" as="alternateBounds" />
          </mxGeometry>
        </mxCell>
        <mxCell id="7E4y---loc7PawPUPzIR-108" value="" style="shape=tableRow;horizontal=0;startSize=0;swimlaneHead=0;swimlaneBody=0;fillColor=none;collapsible=0;dropTarget=0;points=[[0,0.5],[1,0.5]];portConstraint=eastwest;top=0;left=0;right=0;bottom=0;rounded=1;labelBackgroundColor=none;strokeColor=#788AA3;fontColor=#46495D;fontFamily=Times New Roman;swimlaneFillColor=none;strokeWidth=0;" vertex="1" parent="7E4y---loc7PawPUPzIR-101">
          <mxGeometry y="92" width="369.2142857142858" height="37" as="geometry" />
        </mxCell>
        <mxCell id="7E4y---loc7PawPUPzIR-109" value="" style="shape=partialRectangle;connectable=0;fillColor=none;top=0;left=0;bottom=0;right=0;editable=1;overflow=hidden;whiteSpace=wrap;html=1;rounded=1;labelBackgroundColor=none;strokeColor=#788AA3;fontColor=#46495D;fontFamily=Times New Roman;swimlaneFillColor=none;strokeWidth=0;" vertex="1" parent="7E4y---loc7PawPUPzIR-108">
          <mxGeometry width="45.8129483570774" height="37" as="geometry">
            <mxRectangle width="45.8129483570774" height="37" as="alternateBounds" />
          </mxGeometry>
        </mxCell>
        <mxCell id="7E4y---loc7PawPUPzIR-110" value="isbn" style="shape=partialRectangle;connectable=0;fillColor=none;top=0;left=0;bottom=0;right=0;align=left;spacingLeft=6;overflow=hidden;whiteSpace=wrap;html=1;rounded=1;labelBackgroundColor=none;strokeColor=#788AA3;fontColor=#46495D;fontFamily=Times New Roman;swimlaneFillColor=none;strokeWidth=0;" vertex="1" parent="7E4y---loc7PawPUPzIR-108">
          <mxGeometry x="45.8129483570774" width="323.4013373572084" height="37" as="geometry">
            <mxRectangle width="323.4013373572084" height="37" as="alternateBounds" />
          </mxGeometry>
        </mxCell>
        <mxCell id="7E4y---loc7PawPUPzIR-111" value="" style="shape=tableRow;horizontal=0;startSize=0;swimlaneHead=0;swimlaneBody=0;fillColor=none;collapsible=0;dropTarget=0;points=[[0,0.5],[1,0.5]];portConstraint=eastwest;top=0;left=0;right=0;bottom=0;rounded=1;labelBackgroundColor=none;strokeColor=#788AA3;fontColor=#46495D;fontFamily=Times New Roman;swimlaneFillColor=none;strokeWidth=0;" vertex="1" parent="7E4y---loc7PawPUPzIR-101">
          <mxGeometry y="129" width="369.2142857142858" height="23" as="geometry" />
        </mxCell>
        <mxCell id="7E4y---loc7PawPUPzIR-112" value="" style="shape=partialRectangle;connectable=0;fillColor=none;top=0;left=0;bottom=0;right=0;editable=1;overflow=hidden;whiteSpace=wrap;html=1;rounded=1;labelBackgroundColor=none;strokeColor=#788AA3;fontColor=#46495D;fontFamily=Times New Roman;swimlaneFillColor=none;strokeWidth=0;" vertex="1" parent="7E4y---loc7PawPUPzIR-111">
          <mxGeometry width="45.8129483570774" height="23" as="geometry">
            <mxRectangle width="45.8129483570774" height="23" as="alternateBounds" />
          </mxGeometry>
        </mxCell>
        <mxCell id="7E4y---loc7PawPUPzIR-113" value="num_pages" style="shape=partialRectangle;connectable=0;fillColor=none;top=0;left=0;bottom=0;right=0;align=left;spacingLeft=6;overflow=hidden;whiteSpace=wrap;html=1;rounded=1;labelBackgroundColor=none;strokeColor=#788AA3;fontColor=#46495D;fontFamily=Times New Roman;swimlaneFillColor=none;strokeWidth=0;" vertex="1" parent="7E4y---loc7PawPUPzIR-111">
          <mxGeometry x="45.8129483570774" width="323.4013373572084" height="23" as="geometry">
            <mxRectangle width="323.4013373572084" height="23" as="alternateBounds" />
          </mxGeometry>
        </mxCell>
        <mxCell id="7E4y---loc7PawPUPzIR-114" value="" style="shape=tableRow;horizontal=0;startSize=0;swimlaneHead=0;swimlaneBody=0;fillColor=none;collapsible=0;dropTarget=0;points=[[0,0.5],[1,0.5]];portConstraint=eastwest;top=0;left=0;right=0;bottom=0;rounded=1;labelBackgroundColor=none;strokeColor=#788AA3;fontColor=#46495D;fontFamily=Times New Roman;swimlaneFillColor=none;strokeWidth=0;" vertex="1" parent="7E4y---loc7PawPUPzIR-101">
          <mxGeometry y="152" width="369.2142857142858" height="30" as="geometry" />
        </mxCell>
        <mxCell id="7E4y---loc7PawPUPzIR-115" value="" style="shape=partialRectangle;connectable=0;fillColor=none;top=0;left=0;bottom=0;right=0;editable=1;overflow=hidden;whiteSpace=wrap;html=1;rounded=1;labelBackgroundColor=none;strokeColor=#788AA3;fontColor=#46495D;fontFamily=Times New Roman;swimlaneFillColor=none;strokeWidth=0;" vertex="1" parent="7E4y---loc7PawPUPzIR-114">
          <mxGeometry width="45.8129483570774" height="30" as="geometry">
            <mxRectangle width="45.8129483570774" height="30" as="alternateBounds" />
          </mxGeometry>
        </mxCell>
        <mxCell id="7E4y---loc7PawPUPzIR-116" value="publication_dates" style="shape=partialRectangle;connectable=0;fillColor=none;top=0;left=0;bottom=0;right=0;align=left;spacingLeft=6;overflow=hidden;whiteSpace=wrap;html=1;rounded=1;labelBackgroundColor=none;strokeColor=#788AA3;fontColor=#46495D;fontFamily=Times New Roman;swimlaneFillColor=none;strokeWidth=0;" vertex="1" parent="7E4y---loc7PawPUPzIR-114">
          <mxGeometry x="45.8129483570774" width="323.4013373572084" height="30" as="geometry">
            <mxRectangle width="323.4013373572084" height="30" as="alternateBounds" />
          </mxGeometry>
        </mxCell>
        <mxCell id="7E4y---loc7PawPUPzIR-117" value="" style="shape=tableRow;horizontal=0;startSize=0;swimlaneHead=0;swimlaneBody=0;fillColor=none;collapsible=0;dropTarget=0;points=[[0,0.5],[1,0.5]];portConstraint=eastwest;top=0;left=0;right=0;bottom=0;rounded=1;labelBackgroundColor=none;strokeColor=#788AA3;fontColor=#46495D;fontFamily=Times New Roman;swimlaneFillColor=none;strokeWidth=0;" vertex="1" parent="7E4y---loc7PawPUPzIR-101">
          <mxGeometry y="182" width="369.2142857142858" height="30" as="geometry" />
        </mxCell>
        <mxCell id="7E4y---loc7PawPUPzIR-118" value="FK" style="shape=partialRectangle;connectable=0;fillColor=none;top=0;left=0;bottom=0;right=0;editable=1;overflow=hidden;whiteSpace=wrap;html=1;rounded=1;labelBackgroundColor=none;strokeColor=#788AA3;fontColor=#46495D;fontFamily=Times New Roman;swimlaneFillColor=none;strokeWidth=0;" vertex="1" parent="7E4y---loc7PawPUPzIR-117">
          <mxGeometry width="45.8129483570774" height="30" as="geometry">
            <mxRectangle width="45.8129483570774" height="30" as="alternateBounds" />
          </mxGeometry>
        </mxCell>
        <mxCell id="7E4y---loc7PawPUPzIR-119" value="language_id" style="shape=partialRectangle;connectable=0;fillColor=none;top=0;left=0;bottom=0;right=0;align=left;spacingLeft=6;overflow=hidden;whiteSpace=wrap;html=1;rounded=1;labelBackgroundColor=none;strokeColor=#788AA3;fontColor=#46495D;fontFamily=Times New Roman;swimlaneFillColor=none;strokeWidth=0;" vertex="1" parent="7E4y---loc7PawPUPzIR-117">
          <mxGeometry x="45.8129483570774" width="323.4013373572084" height="30" as="geometry">
            <mxRectangle width="323.4013373572084" height="30" as="alternateBounds" />
          </mxGeometry>
        </mxCell>
        <mxCell id="7E4y---loc7PawPUPzIR-120" value="" style="shape=tableRow;horizontal=0;startSize=0;swimlaneHead=0;swimlaneBody=0;fillColor=none;collapsible=0;dropTarget=0;points=[[0,0.5],[1,0.5]];portConstraint=eastwest;top=0;left=0;right=0;bottom=0;rounded=1;labelBackgroundColor=none;strokeColor=#788AA3;fontColor=#46495D;fontFamily=Times New Roman;swimlaneFillColor=none;strokeWidth=0;" vertex="1" parent="7E4y---loc7PawPUPzIR-101">
          <mxGeometry y="212" width="369.2142857142858" height="30" as="geometry" />
        </mxCell>
        <mxCell id="7E4y---loc7PawPUPzIR-121" value="" style="shape=partialRectangle;connectable=0;fillColor=none;top=0;left=0;bottom=0;right=0;editable=1;overflow=hidden;whiteSpace=wrap;html=1;rounded=1;labelBackgroundColor=none;strokeColor=#788AA3;fontColor=#46495D;fontFamily=Times New Roman;swimlaneFillColor=none;strokeWidth=0;" vertex="1" parent="7E4y---loc7PawPUPzIR-120">
          <mxGeometry width="45.8129483570774" height="30" as="geometry">
            <mxRectangle width="45.8129483570774" height="30" as="alternateBounds" />
          </mxGeometry>
        </mxCell>
        <mxCell id="7E4y---loc7PawPUPzIR-122" value="publisher_id" style="shape=partialRectangle;connectable=0;fillColor=none;top=0;left=0;bottom=0;right=0;align=left;spacingLeft=6;overflow=hidden;whiteSpace=wrap;html=1;rounded=1;labelBackgroundColor=none;strokeColor=#788AA3;fontColor=#46495D;fontFamily=Times New Roman;swimlaneFillColor=none;strokeWidth=0;" vertex="1" parent="7E4y---loc7PawPUPzIR-120">
          <mxGeometry x="45.8129483570774" width="323.4013373572084" height="30" as="geometry">
            <mxRectangle width="323.4013373572084" height="30" as="alternateBounds" />
          </mxGeometry>
        </mxCell>
        <mxCell id="7E4y---loc7PawPUPzIR-123" value="" style="shape=tableRow;horizontal=0;startSize=0;swimlaneHead=0;swimlaneBody=0;fillColor=none;collapsible=0;dropTarget=0;points=[[0,0.5],[1,0.5]];portConstraint=eastwest;top=0;left=0;right=0;bottom=0;rounded=1;labelBackgroundColor=none;strokeColor=#788AA3;fontColor=#46495D;fontFamily=Times New Roman;swimlaneFillColor=none;strokeWidth=0;" vertex="1" parent="7E4y---loc7PawPUPzIR-101">
          <mxGeometry y="242" width="369.2142857142858" height="30" as="geometry" />
        </mxCell>
        <mxCell id="7E4y---loc7PawPUPzIR-124" value="" style="shape=partialRectangle;connectable=0;fillColor=none;top=0;left=0;bottom=0;right=0;editable=1;overflow=hidden;whiteSpace=wrap;html=1;rounded=1;labelBackgroundColor=none;strokeColor=#788AA3;fontColor=#46495D;fontFamily=Times New Roman;swimlaneFillColor=none;strokeWidth=0;" vertex="1" parent="7E4y---loc7PawPUPzIR-123">
          <mxGeometry width="45.8129483570774" height="30" as="geometry">
            <mxRectangle width="45.8129483570774" height="30" as="alternateBounds" />
          </mxGeometry>
        </mxCell>
        <mxCell id="7E4y---loc7PawPUPzIR-125" value="price" style="shape=partialRectangle;connectable=0;fillColor=none;top=0;left=0;bottom=0;right=0;align=left;spacingLeft=6;overflow=hidden;whiteSpace=wrap;html=1;rounded=1;labelBackgroundColor=none;strokeColor=#788AA3;fontColor=#46495D;fontFamily=Times New Roman;swimlaneFillColor=none;strokeWidth=0;" vertex="1" parent="7E4y---loc7PawPUPzIR-123">
          <mxGeometry x="45.8129483570774" width="323.4013373572084" height="30" as="geometry">
            <mxRectangle width="323.4013373572084" height="30" as="alternateBounds" />
          </mxGeometry>
        </mxCell>
        <mxCell id="7E4y---loc7PawPUPzIR-126" value="" style="shape=tableRow;horizontal=0;startSize=0;swimlaneHead=0;swimlaneBody=0;fillColor=none;collapsible=0;dropTarget=0;points=[[0,0.5],[1,0.5]];portConstraint=eastwest;top=0;left=0;right=0;bottom=0;rounded=1;labelBackgroundColor=none;strokeColor=#788AA3;fontColor=#46495D;fontFamily=Times New Roman;swimlaneFillColor=none;strokeWidth=0;" vertex="1" parent="7E4y---loc7PawPUPzIR-101">
          <mxGeometry y="272" width="369.2142857142858" height="30" as="geometry" />
        </mxCell>
        <mxCell id="7E4y---loc7PawPUPzIR-127" value="" style="shape=partialRectangle;connectable=0;fillColor=none;top=0;left=0;bottom=0;right=0;editable=1;overflow=hidden;whiteSpace=wrap;html=1;rounded=1;labelBackgroundColor=none;strokeColor=#788AA3;fontColor=#46495D;fontFamily=Times New Roman;swimlaneFillColor=none;strokeWidth=0;" vertex="1" parent="7E4y---loc7PawPUPzIR-126">
          <mxGeometry width="45.8129483570774" height="30" as="geometry">
            <mxRectangle width="45.8129483570774" height="30" as="alternateBounds" />
          </mxGeometry>
        </mxCell>
        <mxCell id="7E4y---loc7PawPUPzIR-128" value="stock_quantity" style="shape=partialRectangle;connectable=0;fillColor=none;top=0;left=0;bottom=0;right=0;align=left;spacingLeft=6;overflow=hidden;whiteSpace=wrap;html=1;rounded=1;labelBackgroundColor=none;strokeColor=#788AA3;fontColor=#46495D;fontFamily=Times New Roman;swimlaneFillColor=none;strokeWidth=0;" vertex="1" parent="7E4y---loc7PawPUPzIR-126">
          <mxGeometry x="45.8129483570774" width="323.4013373572084" height="30" as="geometry">
            <mxRectangle width="323.4013373572084" height="30" as="alternateBounds" />
          </mxGeometry>
        </mxCell>
        <mxCell id="7E4y---loc7PawPUPzIR-142" value="author" style="shape=table;startSize=30;container=1;collapsible=1;childLayout=tableLayout;fixedRows=1;rowLines=0;fontStyle=1;align=center;resizeLast=1;html=1;rounded=1;shadow=1;labelBackgroundColor=none;fillColor=#f5f5f5;strokeColor=#666666;gradientColor=#b3b3b3;" vertex="1" parent="1">
          <mxGeometry x="-167" y="-723.61" width="288.9215590533087" height="134.45101390165445" as="geometry" />
        </mxCell>
        <mxCell id="7E4y---loc7PawPUPzIR-143" value="" style="shape=tableRow;horizontal=0;startSize=0;swimlaneHead=0;swimlaneBody=0;fillColor=none;collapsible=0;dropTarget=0;points=[[0,0.5],[1,0.5]];portConstraint=eastwest;top=0;left=0;right=0;bottom=1;rounded=1;labelBackgroundColor=none;strokeColor=#788AA3;fontColor=#46495D;fontFamily=Times New Roman;swimlaneFillColor=none;strokeWidth=0;" vertex="1" parent="7E4y---loc7PawPUPzIR-142">
          <mxGeometry y="30" width="288.9215590533087" height="30" as="geometry" />
        </mxCell>
        <mxCell id="7E4y---loc7PawPUPzIR-144" value="PK" style="shape=partialRectangle;connectable=0;fillColor=none;top=0;left=0;bottom=0;right=0;fontStyle=1;overflow=hidden;whiteSpace=wrap;html=1;rounded=1;labelBackgroundColor=none;strokeColor=#788AA3;fontColor=#46495D;fontFamily=Times New Roman;swimlaneFillColor=none;strokeWidth=0;" vertex="1" parent="7E4y---loc7PawPUPzIR-143">
          <mxGeometry width="30" height="30" as="geometry">
            <mxRectangle width="30" height="30" as="alternateBounds" />
          </mxGeometry>
        </mxCell>
        <mxCell id="7E4y---loc7PawPUPzIR-145" value="author_id" style="shape=partialRectangle;connectable=0;fillColor=none;top=0;left=0;bottom=0;right=0;align=left;spacingLeft=6;fontStyle=5;overflow=hidden;whiteSpace=wrap;html=1;rounded=1;labelBackgroundColor=none;strokeColor=#788AA3;fontColor=#46495D;fontFamily=Times New Roman;swimlaneFillColor=none;strokeWidth=0;" vertex="1" parent="7E4y---loc7PawPUPzIR-143">
          <mxGeometry x="30" width="258.9215590533087" height="30" as="geometry">
            <mxRectangle width="258.9215590533087" height="30" as="alternateBounds" />
          </mxGeometry>
        </mxCell>
        <mxCell id="7E4y---loc7PawPUPzIR-146" value="" style="shape=tableRow;horizontal=0;startSize=0;swimlaneHead=0;swimlaneBody=0;fillColor=none;collapsible=0;dropTarget=0;points=[[0,0.5],[1,0.5]];portConstraint=eastwest;top=0;left=0;right=0;bottom=0;rounded=1;labelBackgroundColor=none;strokeColor=#788AA3;fontColor=#46495D;fontFamily=Times New Roman;swimlaneFillColor=none;strokeWidth=0;" vertex="1" parent="7E4y---loc7PawPUPzIR-142">
          <mxGeometry y="60" width="288.9215590533087" height="30" as="geometry" />
        </mxCell>
        <mxCell id="7E4y---loc7PawPUPzIR-147" value="" style="shape=partialRectangle;connectable=0;fillColor=none;top=0;left=0;bottom=0;right=0;editable=1;overflow=hidden;whiteSpace=wrap;html=1;rounded=1;labelBackgroundColor=none;strokeColor=#788AA3;fontColor=#46495D;fontFamily=Times New Roman;swimlaneFillColor=none;strokeWidth=0;" vertex="1" parent="7E4y---loc7PawPUPzIR-146">
          <mxGeometry width="30" height="30" as="geometry">
            <mxRectangle width="30" height="30" as="alternateBounds" />
          </mxGeometry>
        </mxCell>
        <mxCell id="7E4y---loc7PawPUPzIR-148" value="author_name" style="shape=partialRectangle;connectable=0;fillColor=none;top=0;left=0;bottom=0;right=0;align=left;spacingLeft=6;overflow=hidden;whiteSpace=wrap;html=1;rounded=1;labelBackgroundColor=none;strokeColor=#788AA3;fontColor=#46495D;fontFamily=Times New Roman;swimlaneFillColor=none;strokeWidth=0;" vertex="1" parent="7E4y---loc7PawPUPzIR-146">
          <mxGeometry x="30" width="258.9215590533087" height="30" as="geometry">
            <mxRectangle width="258.9215590533087" height="30" as="alternateBounds" />
          </mxGeometry>
        </mxCell>
        <mxCell id="7E4y---loc7PawPUPzIR-149" value="" style="shape=tableRow;horizontal=0;startSize=0;swimlaneHead=0;swimlaneBody=0;fillColor=none;collapsible=0;dropTarget=0;points=[[0,0.5],[1,0.5]];portConstraint=eastwest;top=0;left=0;right=0;bottom=0;rounded=1;labelBackgroundColor=none;strokeColor=#788AA3;fontColor=#46495D;fontFamily=Times New Roman;swimlaneFillColor=none;strokeWidth=0;" vertex="1" parent="7E4y---loc7PawPUPzIR-142">
          <mxGeometry y="90" width="288.9215590533087" height="44" as="geometry" />
        </mxCell>
        <mxCell id="7E4y---loc7PawPUPzIR-150" value="" style="shape=partialRectangle;connectable=0;fillColor=none;top=0;left=0;bottom=0;right=0;editable=1;overflow=hidden;whiteSpace=wrap;html=1;rounded=1;labelBackgroundColor=none;strokeColor=#788AA3;fontColor=#46495D;fontFamily=Times New Roman;swimlaneFillColor=none;strokeWidth=0;" vertex="1" parent="7E4y---loc7PawPUPzIR-149">
          <mxGeometry width="30" height="44" as="geometry">
            <mxRectangle width="30" height="44" as="alternateBounds" />
          </mxGeometry>
        </mxCell>
        <mxCell id="7E4y---loc7PawPUPzIR-151" value="author_bio" style="shape=partialRectangle;connectable=0;fillColor=none;top=0;left=0;bottom=0;right=0;align=left;spacingLeft=6;overflow=hidden;whiteSpace=wrap;html=1;rounded=1;labelBackgroundColor=none;strokeColor=#788AA3;fontColor=#46495D;fontFamily=Times New Roman;swimlaneFillColor=none;strokeWidth=0;" vertex="1" parent="7E4y---loc7PawPUPzIR-149">
          <mxGeometry x="30" width="258.9215590533087" height="44" as="geometry">
            <mxRectangle width="258.9215590533087" height="44" as="alternateBounds" />
          </mxGeometry>
        </mxCell>
        <mxCell id="7E4y---loc7PawPUPzIR-155" value="book_author" style="shape=table;startSize=21;container=1;collapsible=1;childLayout=tableLayout;fixedRows=1;rowLines=0;fontStyle=1;align=center;resizeLast=1;html=1;whiteSpace=wrap;rounded=1;shadow=1;labelBackgroundColor=none;fillColor=#f5f5f5;strokeColor=#666666;fontFamily=Times New Roman;swimlaneFillColor=none;strokeWidth=0;gradientColor=#b3b3b3;" vertex="1" parent="1">
          <mxGeometry x="-455" y="-682" width="180" height="108.38749186197919" as="geometry" />
        </mxCell>
        <mxCell id="7E4y---loc7PawPUPzIR-156" value="" style="shape=tableRow;horizontal=0;startSize=0;swimlaneHead=0;swimlaneBody=0;fillColor=none;collapsible=0;dropTarget=0;points=[[0,0.5],[1,0.5]];portConstraint=eastwest;top=0;left=0;right=0;bottom=0;html=1;rounded=1;labelBackgroundColor=none;strokeColor=#788AA3;fontColor=#46495D;fontFamily=Times New Roman;swimlaneFillColor=none;strokeWidth=0;" vertex="1" parent="7E4y---loc7PawPUPzIR-155">
          <mxGeometry y="21" width="180" height="30" as="geometry" />
        </mxCell>
        <mxCell id="7E4y---loc7PawPUPzIR-157" value="PK,FK1" style="shape=partialRectangle;connectable=0;fillColor=none;top=0;left=0;bottom=0;right=0;fontStyle=1;overflow=hidden;html=1;whiteSpace=wrap;rounded=1;labelBackgroundColor=none;strokeColor=#788AA3;fontColor=#46495D;fontFamily=Times New Roman;swimlaneFillColor=none;strokeWidth=0;" vertex="1" parent="7E4y---loc7PawPUPzIR-156">
          <mxGeometry width="60" height="30" as="geometry">
            <mxRectangle width="60" height="30" as="alternateBounds" />
          </mxGeometry>
        </mxCell>
        <mxCell id="7E4y---loc7PawPUPzIR-158" value="book_id" style="shape=partialRectangle;connectable=0;fillColor=none;top=0;left=0;bottom=0;right=0;align=left;spacingLeft=6;fontStyle=5;overflow=hidden;html=1;whiteSpace=wrap;rounded=1;labelBackgroundColor=none;strokeColor=#788AA3;fontColor=#46495D;fontFamily=Times New Roman;swimlaneFillColor=none;strokeWidth=0;" vertex="1" parent="7E4y---loc7PawPUPzIR-156">
          <mxGeometry x="60" width="120" height="30" as="geometry">
            <mxRectangle width="120" height="30" as="alternateBounds" />
          </mxGeometry>
        </mxCell>
        <mxCell id="7E4y---loc7PawPUPzIR-159" value="" style="shape=tableRow;horizontal=0;startSize=0;swimlaneHead=0;swimlaneBody=0;fillColor=none;collapsible=0;dropTarget=0;points=[[0,0.5],[1,0.5]];portConstraint=eastwest;top=0;left=0;right=0;bottom=1;html=1;rounded=1;labelBackgroundColor=none;strokeColor=#788AA3;fontColor=#46495D;fontFamily=Times New Roman;swimlaneFillColor=none;strokeWidth=0;" vertex="1" parent="7E4y---loc7PawPUPzIR-155">
          <mxGeometry y="51" width="180" height="48" as="geometry" />
        </mxCell>
        <mxCell id="7E4y---loc7PawPUPzIR-160" value="PK,FK2" style="shape=partialRectangle;connectable=0;fillColor=none;top=0;left=0;bottom=0;right=0;fontStyle=1;overflow=hidden;html=1;whiteSpace=wrap;rounded=1;labelBackgroundColor=none;strokeColor=#788AA3;fontColor=#46495D;fontFamily=Times New Roman;swimlaneFillColor=none;strokeWidth=0;" vertex="1" parent="7E4y---loc7PawPUPzIR-159">
          <mxGeometry width="60" height="48" as="geometry">
            <mxRectangle width="60" height="48" as="alternateBounds" />
          </mxGeometry>
        </mxCell>
        <mxCell id="7E4y---loc7PawPUPzIR-161" value="author_id" style="shape=partialRectangle;connectable=0;fillColor=none;top=0;left=0;bottom=0;right=0;align=left;spacingLeft=6;fontStyle=5;overflow=hidden;html=1;whiteSpace=wrap;rounded=1;labelBackgroundColor=none;strokeColor=#788AA3;fontColor=#46495D;fontFamily=Times New Roman;swimlaneFillColor=none;strokeWidth=0;" vertex="1" parent="7E4y---loc7PawPUPzIR-159">
          <mxGeometry x="60" width="120" height="48" as="geometry">
            <mxRectangle width="120" height="48" as="alternateBounds" />
          </mxGeometry>
        </mxCell>
        <mxCell id="7E4y---loc7PawPUPzIR-169" value="publisher" style="shape=table;startSize=30;container=1;collapsible=1;childLayout=tableLayout;fixedRows=1;rowLines=0;fontStyle=1;align=center;resizeLast=1;html=1;rounded=1;shadow=1;labelBackgroundColor=none;fillColor=#f5f5f5;strokeColor=#666666;fontFamily=Times New Roman;swimlaneFillColor=none;strokeWidth=0;gradientColor=#b3b3b3;" vertex="1" parent="1">
          <mxGeometry x="229" y="-723.61" width="406.75" height="150" as="geometry" />
        </mxCell>
        <mxCell id="7E4y---loc7PawPUPzIR-170" value="" style="shape=tableRow;horizontal=0;startSize=0;swimlaneHead=0;swimlaneBody=0;fillColor=none;collapsible=0;dropTarget=0;points=[[0,0.5],[1,0.5]];portConstraint=eastwest;top=0;left=0;right=0;bottom=1;rounded=1;labelBackgroundColor=none;strokeColor=#788AA3;fontColor=#46495D;fontFamily=Times New Roman;swimlaneFillColor=none;strokeWidth=0;" vertex="1" parent="7E4y---loc7PawPUPzIR-169">
          <mxGeometry y="30" width="406.75" height="30" as="geometry" />
        </mxCell>
        <mxCell id="7E4y---loc7PawPUPzIR-171" value="PK" style="shape=partialRectangle;connectable=0;fillColor=none;top=0;left=0;bottom=0;right=0;fontStyle=1;overflow=hidden;whiteSpace=wrap;html=1;rounded=1;labelBackgroundColor=none;strokeColor=#788AA3;fontColor=#46495D;fontFamily=Times New Roman;swimlaneFillColor=none;strokeWidth=0;" vertex="1" parent="7E4y---loc7PawPUPzIR-170">
          <mxGeometry width="30" height="30" as="geometry">
            <mxRectangle width="30" height="30" as="alternateBounds" />
          </mxGeometry>
        </mxCell>
        <mxCell id="7E4y---loc7PawPUPzIR-172" value="publisher_id" style="shape=partialRectangle;connectable=0;fillColor=none;top=0;left=0;bottom=0;right=0;align=left;spacingLeft=6;fontStyle=5;overflow=hidden;whiteSpace=wrap;html=1;rounded=1;labelBackgroundColor=none;strokeColor=#788AA3;fontColor=#46495D;fontFamily=Times New Roman;swimlaneFillColor=none;strokeWidth=0;" vertex="1" parent="7E4y---loc7PawPUPzIR-170">
          <mxGeometry x="30" width="376.75" height="30" as="geometry">
            <mxRectangle width="376.75" height="30" as="alternateBounds" />
          </mxGeometry>
        </mxCell>
        <mxCell id="7E4y---loc7PawPUPzIR-173" value="" style="shape=tableRow;horizontal=0;startSize=0;swimlaneHead=0;swimlaneBody=0;fillColor=none;collapsible=0;dropTarget=0;points=[[0,0.5],[1,0.5]];portConstraint=eastwest;top=0;left=0;right=0;bottom=0;rounded=1;labelBackgroundColor=none;strokeColor=#788AA3;fontColor=#46495D;fontFamily=Times New Roman;swimlaneFillColor=none;strokeWidth=0;" vertex="1" parent="7E4y---loc7PawPUPzIR-169">
          <mxGeometry y="60" width="406.75" height="30" as="geometry" />
        </mxCell>
        <mxCell id="7E4y---loc7PawPUPzIR-174" value="" style="shape=partialRectangle;connectable=0;fillColor=none;top=0;left=0;bottom=0;right=0;editable=1;overflow=hidden;whiteSpace=wrap;html=1;rounded=1;labelBackgroundColor=none;strokeColor=#788AA3;fontColor=#46495D;fontFamily=Times New Roman;swimlaneFillColor=none;strokeWidth=0;" vertex="1" parent="7E4y---loc7PawPUPzIR-173">
          <mxGeometry width="30" height="30" as="geometry">
            <mxRectangle width="30" height="30" as="alternateBounds" />
          </mxGeometry>
        </mxCell>
        <mxCell id="7E4y---loc7PawPUPzIR-175" value="publisher_name" style="shape=partialRectangle;connectable=0;fillColor=none;top=0;left=0;bottom=0;right=0;align=left;spacingLeft=6;overflow=hidden;whiteSpace=wrap;html=1;rounded=1;labelBackgroundColor=none;strokeColor=#788AA3;fontColor=#46495D;fontFamily=Times New Roman;swimlaneFillColor=none;strokeWidth=0;" vertex="1" parent="7E4y---loc7PawPUPzIR-173">
          <mxGeometry x="30" width="376.75" height="30" as="geometry">
            <mxRectangle width="376.75" height="30" as="alternateBounds" />
          </mxGeometry>
        </mxCell>
        <mxCell id="7E4y---loc7PawPUPzIR-176" value="" style="shape=tableRow;horizontal=0;startSize=0;swimlaneHead=0;swimlaneBody=0;fillColor=none;collapsible=0;dropTarget=0;points=[[0,0.5],[1,0.5]];portConstraint=eastwest;top=0;left=0;right=0;bottom=0;rounded=1;labelBackgroundColor=none;strokeColor=#788AA3;fontColor=#46495D;fontFamily=Times New Roman;swimlaneFillColor=none;strokeWidth=0;" vertex="1" parent="7E4y---loc7PawPUPzIR-169">
          <mxGeometry y="90" width="406.75" height="30" as="geometry" />
        </mxCell>
        <mxCell id="7E4y---loc7PawPUPzIR-177" value="" style="shape=partialRectangle;connectable=0;fillColor=none;top=0;left=0;bottom=0;right=0;editable=1;overflow=hidden;whiteSpace=wrap;html=1;rounded=1;labelBackgroundColor=none;strokeColor=#788AA3;fontColor=#46495D;fontFamily=Times New Roman;swimlaneFillColor=none;strokeWidth=0;" vertex="1" parent="7E4y---loc7PawPUPzIR-176">
          <mxGeometry width="30" height="30" as="geometry">
            <mxRectangle width="30" height="30" as="alternateBounds" />
          </mxGeometry>
        </mxCell>
        <mxCell id="7E4y---loc7PawPUPzIR-178" value="publisher_email" style="shape=partialRectangle;connectable=0;fillColor=none;top=0;left=0;bottom=0;right=0;align=left;spacingLeft=6;overflow=hidden;whiteSpace=wrap;html=1;rounded=1;labelBackgroundColor=none;strokeColor=#788AA3;fontColor=#46495D;fontFamily=Times New Roman;swimlaneFillColor=none;strokeWidth=0;" vertex="1" parent="7E4y---loc7PawPUPzIR-176">
          <mxGeometry x="30" width="376.75" height="30" as="geometry">
            <mxRectangle width="376.75" height="30" as="alternateBounds" />
          </mxGeometry>
        </mxCell>
        <mxCell id="7E4y---loc7PawPUPzIR-179" value="" style="shape=tableRow;horizontal=0;startSize=0;swimlaneHead=0;swimlaneBody=0;fillColor=none;collapsible=0;dropTarget=0;points=[[0,0.5],[1,0.5]];portConstraint=eastwest;top=0;left=0;right=0;bottom=0;rounded=1;labelBackgroundColor=none;strokeColor=#788AA3;fontColor=#46495D;fontFamily=Times New Roman;swimlaneFillColor=none;strokeWidth=0;" vertex="1" parent="7E4y---loc7PawPUPzIR-169">
          <mxGeometry y="120" width="406.75" height="30" as="geometry" />
        </mxCell>
        <mxCell id="7E4y---loc7PawPUPzIR-180" value="" style="shape=partialRectangle;connectable=0;fillColor=none;top=0;left=0;bottom=0;right=0;editable=1;overflow=hidden;whiteSpace=wrap;html=1;rounded=1;labelBackgroundColor=none;strokeColor=#788AA3;fontColor=#46495D;fontFamily=Times New Roman;swimlaneFillColor=none;strokeWidth=0;" vertex="1" parent="7E4y---loc7PawPUPzIR-179">
          <mxGeometry width="30" height="30" as="geometry">
            <mxRectangle width="30" height="30" as="alternateBounds" />
          </mxGeometry>
        </mxCell>
        <mxCell id="7E4y---loc7PawPUPzIR-181" value="publisher_phone" style="shape=partialRectangle;connectable=0;fillColor=none;top=0;left=0;bottom=0;right=0;align=left;spacingLeft=6;overflow=hidden;whiteSpace=wrap;html=1;rounded=1;labelBackgroundColor=none;strokeColor=#788AA3;fontColor=#46495D;fontFamily=Times New Roman;swimlaneFillColor=none;strokeWidth=0;" vertex="1" parent="7E4y---loc7PawPUPzIR-179">
          <mxGeometry x="30" width="376.75" height="30" as="geometry">
            <mxRectangle width="376.75" height="30" as="alternateBounds" />
          </mxGeometry>
        </mxCell>
        <mxCell id="7E4y---loc7PawPUPzIR-182" value="book_language" style="shape=table;startSize=30;container=1;collapsible=1;childLayout=tableLayout;fixedRows=1;rowLines=0;fontStyle=1;align=center;resizeLast=1;html=1;rounded=1;shadow=1;labelBackgroundColor=none;fillColor=#f5f5f5;strokeColor=#666666;fontFamily=Times New Roman;swimlaneFillColor=none;strokeWidth=0;gradientColor=#b3b3b3;" vertex="1" parent="1">
          <mxGeometry x="237.25" y="-534" width="404.75" height="149" as="geometry" />
        </mxCell>
        <mxCell id="7E4y---loc7PawPUPzIR-183" value="" style="shape=tableRow;horizontal=0;startSize=0;swimlaneHead=0;swimlaneBody=0;fillColor=none;collapsible=0;dropTarget=0;points=[[0,0.5],[1,0.5]];portConstraint=eastwest;top=0;left=0;right=0;bottom=1;rounded=1;labelBackgroundColor=none;strokeColor=#788AA3;fontColor=#46495D;fontFamily=Times New Roman;swimlaneFillColor=none;strokeWidth=0;" vertex="1" parent="7E4y---loc7PawPUPzIR-182">
          <mxGeometry y="30" width="404.75" height="29" as="geometry" />
        </mxCell>
        <mxCell id="7E4y---loc7PawPUPzIR-184" value="PK" style="shape=partialRectangle;connectable=0;fillColor=none;top=0;left=0;bottom=0;right=0;fontStyle=1;overflow=hidden;whiteSpace=wrap;html=1;rounded=1;labelBackgroundColor=none;strokeColor=#788AA3;fontColor=#46495D;fontFamily=Times New Roman;swimlaneFillColor=none;strokeWidth=0;" vertex="1" parent="7E4y---loc7PawPUPzIR-183">
          <mxGeometry width="30" height="29" as="geometry">
            <mxRectangle width="30" height="29" as="alternateBounds" />
          </mxGeometry>
        </mxCell>
        <mxCell id="7E4y---loc7PawPUPzIR-185" value="language_id" style="shape=partialRectangle;connectable=0;fillColor=none;top=0;left=0;bottom=0;right=0;align=left;spacingLeft=6;fontStyle=5;overflow=hidden;whiteSpace=wrap;html=1;rounded=1;labelBackgroundColor=none;strokeColor=#788AA3;fontColor=#46495D;fontFamily=Times New Roman;swimlaneFillColor=none;strokeWidth=0;" vertex="1" parent="7E4y---loc7PawPUPzIR-183">
          <mxGeometry x="30" width="374.75" height="29" as="geometry">
            <mxRectangle width="374.75" height="29" as="alternateBounds" />
          </mxGeometry>
        </mxCell>
        <mxCell id="7E4y---loc7PawPUPzIR-186" value="" style="shape=tableRow;horizontal=0;startSize=0;swimlaneHead=0;swimlaneBody=0;fillColor=none;collapsible=0;dropTarget=0;points=[[0,0.5],[1,0.5]];portConstraint=eastwest;top=0;left=0;right=0;bottom=0;rounded=1;labelBackgroundColor=none;strokeColor=#788AA3;fontColor=#46495D;fontFamily=Times New Roman;swimlaneFillColor=none;strokeWidth=0;" vertex="1" parent="7E4y---loc7PawPUPzIR-182">
          <mxGeometry y="59" width="404.75" height="30" as="geometry" />
        </mxCell>
        <mxCell id="7E4y---loc7PawPUPzIR-187" value="" style="shape=partialRectangle;connectable=0;fillColor=none;top=0;left=0;bottom=0;right=0;editable=1;overflow=hidden;whiteSpace=wrap;html=1;rounded=1;labelBackgroundColor=none;strokeColor=#788AA3;fontColor=#46495D;fontFamily=Times New Roman;swimlaneFillColor=none;strokeWidth=0;" vertex="1" parent="7E4y---loc7PawPUPzIR-186">
          <mxGeometry width="30" height="30" as="geometry">
            <mxRectangle width="30" height="30" as="alternateBounds" />
          </mxGeometry>
        </mxCell>
        <mxCell id="7E4y---loc7PawPUPzIR-188" value="language_code" style="shape=partialRectangle;connectable=0;fillColor=none;top=0;left=0;bottom=0;right=0;align=left;spacingLeft=6;overflow=hidden;whiteSpace=wrap;html=1;rounded=1;labelBackgroundColor=none;strokeColor=#788AA3;fontColor=#46495D;fontFamily=Times New Roman;swimlaneFillColor=none;strokeWidth=0;" vertex="1" parent="7E4y---loc7PawPUPzIR-186">
          <mxGeometry x="30" width="374.75" height="30" as="geometry">
            <mxRectangle width="374.75" height="30" as="alternateBounds" />
          </mxGeometry>
        </mxCell>
        <mxCell id="7E4y---loc7PawPUPzIR-380" value="" style="shape=tableRow;horizontal=0;startSize=0;swimlaneHead=0;swimlaneBody=0;fillColor=none;collapsible=0;dropTarget=0;points=[[0,0.5],[1,0.5]];portConstraint=eastwest;top=0;left=0;right=0;bottom=0;rounded=1;labelBackgroundColor=none;strokeColor=#788AA3;fontColor=#46495D;fontFamily=Times New Roman;swimlaneFillColor=none;strokeWidth=0;" vertex="1" parent="7E4y---loc7PawPUPzIR-182">
          <mxGeometry y="89" width="404.75" height="30" as="geometry" />
        </mxCell>
        <mxCell id="7E4y---loc7PawPUPzIR-381" value="" style="shape=partialRectangle;connectable=0;fillColor=none;top=0;left=0;bottom=0;right=0;editable=1;overflow=hidden;whiteSpace=wrap;html=1;rounded=1;labelBackgroundColor=none;strokeColor=#788AA3;fontColor=#46495D;fontFamily=Times New Roman;swimlaneFillColor=none;strokeWidth=0;" vertex="1" parent="7E4y---loc7PawPUPzIR-380">
          <mxGeometry width="30" height="30" as="geometry">
            <mxRectangle width="30" height="30" as="alternateBounds" />
          </mxGeometry>
        </mxCell>
        <mxCell id="7E4y---loc7PawPUPzIR-382" value="language_code" style="shape=partialRectangle;connectable=0;fillColor=none;top=0;left=0;bottom=0;right=0;align=left;spacingLeft=6;overflow=hidden;whiteSpace=wrap;html=1;rounded=1;labelBackgroundColor=none;strokeColor=#788AA3;fontColor=#46495D;fontFamily=Times New Roman;swimlaneFillColor=none;strokeWidth=0;" vertex="1" parent="7E4y---loc7PawPUPzIR-380">
          <mxGeometry x="30" width="374.75" height="30" as="geometry">
            <mxRectangle width="374.75" height="30" as="alternateBounds" />
          </mxGeometry>
        </mxCell>
        <mxCell id="7E4y---loc7PawPUPzIR-189" value="" style="shape=tableRow;horizontal=0;startSize=0;swimlaneHead=0;swimlaneBody=0;fillColor=none;collapsible=0;dropTarget=0;points=[[0,0.5],[1,0.5]];portConstraint=eastwest;top=0;left=0;right=0;bottom=0;rounded=1;labelBackgroundColor=none;strokeColor=#788AA3;fontColor=#46495D;fontFamily=Times New Roman;swimlaneFillColor=none;strokeWidth=0;" vertex="1" parent="7E4y---loc7PawPUPzIR-182">
          <mxGeometry y="119" width="404.75" height="30" as="geometry" />
        </mxCell>
        <mxCell id="7E4y---loc7PawPUPzIR-190" value="" style="shape=partialRectangle;connectable=0;fillColor=none;top=0;left=0;bottom=0;right=0;editable=1;overflow=hidden;whiteSpace=wrap;html=1;rounded=1;labelBackgroundColor=none;strokeColor=#788AA3;fontColor=#46495D;fontFamily=Times New Roman;swimlaneFillColor=none;strokeWidth=0;" vertex="1" parent="7E4y---loc7PawPUPzIR-189">
          <mxGeometry width="30" height="30" as="geometry">
            <mxRectangle width="30" height="30" as="alternateBounds" />
          </mxGeometry>
        </mxCell>
        <mxCell id="7E4y---loc7PawPUPzIR-191" value="language_name" style="shape=partialRectangle;connectable=0;fillColor=none;top=0;left=0;bottom=0;right=0;align=left;spacingLeft=6;overflow=hidden;whiteSpace=wrap;html=1;rounded=1;labelBackgroundColor=none;strokeColor=#788AA3;fontColor=#46495D;fontFamily=Times New Roman;swimlaneFillColor=none;strokeWidth=0;" vertex="1" parent="7E4y---loc7PawPUPzIR-189">
          <mxGeometry x="30" width="374.75" height="30" as="geometry">
            <mxRectangle width="374.75" height="30" as="alternateBounds" />
          </mxGeometry>
        </mxCell>
        <mxCell id="7E4y---loc7PawPUPzIR-195" value="customer" style="shape=table;startSize=30;container=1;collapsible=1;childLayout=tableLayout;fixedRows=1;rowLines=0;fontStyle=1;align=center;resizeLast=1;html=1;rounded=1;shadow=1;labelBackgroundColor=none;fillColor=#f5f5f5;strokeColor=#666666;fontFamily=Times New Roman;swimlaneFillColor=none;strokeWidth=0;gradientColor=#b3b3b3;" vertex="1" parent="1">
          <mxGeometry x="-35" y="-204" width="180" height="240" as="geometry" />
        </mxCell>
        <mxCell id="7E4y---loc7PawPUPzIR-196" value="" style="shape=tableRow;horizontal=0;startSize=0;swimlaneHead=0;swimlaneBody=0;fillColor=none;collapsible=0;dropTarget=0;points=[[0,0.5],[1,0.5]];portConstraint=eastwest;top=0;left=0;right=0;bottom=1;rounded=1;labelBackgroundColor=none;strokeColor=#788AA3;fontColor=#46495D;fontFamily=Times New Roman;swimlaneFillColor=none;strokeWidth=0;" vertex="1" parent="7E4y---loc7PawPUPzIR-195">
          <mxGeometry y="30" width="180" height="30" as="geometry" />
        </mxCell>
        <mxCell id="7E4y---loc7PawPUPzIR-197" value="PK" style="shape=partialRectangle;connectable=0;fillColor=none;top=0;left=0;bottom=0;right=0;fontStyle=1;overflow=hidden;whiteSpace=wrap;html=1;rounded=1;labelBackgroundColor=none;strokeColor=#788AA3;fontColor=#46495D;fontFamily=Times New Roman;swimlaneFillColor=none;strokeWidth=0;" vertex="1" parent="7E4y---loc7PawPUPzIR-196">
          <mxGeometry width="30" height="30" as="geometry">
            <mxRectangle width="30" height="30" as="alternateBounds" />
          </mxGeometry>
        </mxCell>
        <mxCell id="7E4y---loc7PawPUPzIR-198" value="customer_id" style="shape=partialRectangle;connectable=0;fillColor=none;top=0;left=0;bottom=0;right=0;align=left;spacingLeft=6;fontStyle=5;overflow=hidden;whiteSpace=wrap;html=1;rounded=1;labelBackgroundColor=none;strokeColor=#788AA3;fontColor=#46495D;fontFamily=Times New Roman;swimlaneFillColor=none;strokeWidth=0;" vertex="1" parent="7E4y---loc7PawPUPzIR-196">
          <mxGeometry x="30" width="150" height="30" as="geometry">
            <mxRectangle width="150" height="30" as="alternateBounds" />
          </mxGeometry>
        </mxCell>
        <mxCell id="7E4y---loc7PawPUPzIR-199" value="" style="shape=tableRow;horizontal=0;startSize=0;swimlaneHead=0;swimlaneBody=0;fillColor=none;collapsible=0;dropTarget=0;points=[[0,0.5],[1,0.5]];portConstraint=eastwest;top=0;left=0;right=0;bottom=0;rounded=1;labelBackgroundColor=none;strokeColor=#788AA3;fontColor=#46495D;fontFamily=Times New Roman;swimlaneFillColor=none;strokeWidth=0;" vertex="1" parent="7E4y---loc7PawPUPzIR-195">
          <mxGeometry y="60" width="180" height="30" as="geometry" />
        </mxCell>
        <mxCell id="7E4y---loc7PawPUPzIR-200" value="" style="shape=partialRectangle;connectable=0;fillColor=none;top=0;left=0;bottom=0;right=0;editable=1;overflow=hidden;whiteSpace=wrap;html=1;rounded=1;labelBackgroundColor=none;strokeColor=#788AA3;fontColor=#46495D;fontFamily=Times New Roman;swimlaneFillColor=none;strokeWidth=0;" vertex="1" parent="7E4y---loc7PawPUPzIR-199">
          <mxGeometry width="30" height="30" as="geometry">
            <mxRectangle width="30" height="30" as="alternateBounds" />
          </mxGeometry>
        </mxCell>
        <mxCell id="7E4y---loc7PawPUPzIR-201" value="first_name" style="shape=partialRectangle;connectable=0;fillColor=none;top=0;left=0;bottom=0;right=0;align=left;spacingLeft=6;overflow=hidden;whiteSpace=wrap;html=1;rounded=1;labelBackgroundColor=none;strokeColor=#788AA3;fontColor=#46495D;fontFamily=Times New Roman;swimlaneFillColor=none;strokeWidth=0;" vertex="1" parent="7E4y---loc7PawPUPzIR-199">
          <mxGeometry x="30" width="150" height="30" as="geometry">
            <mxRectangle width="150" height="30" as="alternateBounds" />
          </mxGeometry>
        </mxCell>
        <mxCell id="7E4y---loc7PawPUPzIR-202" value="" style="shape=tableRow;horizontal=0;startSize=0;swimlaneHead=0;swimlaneBody=0;fillColor=none;collapsible=0;dropTarget=0;points=[[0,0.5],[1,0.5]];portConstraint=eastwest;top=0;left=0;right=0;bottom=0;rounded=1;labelBackgroundColor=none;strokeColor=#788AA3;fontColor=#46495D;fontFamily=Times New Roman;swimlaneFillColor=none;strokeWidth=0;" vertex="1" parent="7E4y---loc7PawPUPzIR-195">
          <mxGeometry y="90" width="180" height="30" as="geometry" />
        </mxCell>
        <mxCell id="7E4y---loc7PawPUPzIR-203" value="" style="shape=partialRectangle;connectable=0;fillColor=none;top=0;left=0;bottom=0;right=0;editable=1;overflow=hidden;whiteSpace=wrap;html=1;rounded=1;labelBackgroundColor=none;strokeColor=#788AA3;fontColor=#46495D;fontFamily=Times New Roman;swimlaneFillColor=none;strokeWidth=0;" vertex="1" parent="7E4y---loc7PawPUPzIR-202">
          <mxGeometry width="30" height="30" as="geometry">
            <mxRectangle width="30" height="30" as="alternateBounds" />
          </mxGeometry>
        </mxCell>
        <mxCell id="7E4y---loc7PawPUPzIR-204" value="last_name" style="shape=partialRectangle;connectable=0;fillColor=none;top=0;left=0;bottom=0;right=0;align=left;spacingLeft=6;overflow=hidden;whiteSpace=wrap;html=1;rounded=1;labelBackgroundColor=none;strokeColor=#788AA3;fontColor=#46495D;fontFamily=Times New Roman;swimlaneFillColor=none;strokeWidth=0;" vertex="1" parent="7E4y---loc7PawPUPzIR-202">
          <mxGeometry x="30" width="150" height="30" as="geometry">
            <mxRectangle width="150" height="30" as="alternateBounds" />
          </mxGeometry>
        </mxCell>
        <mxCell id="7E4y---loc7PawPUPzIR-205" value="" style="shape=tableRow;horizontal=0;startSize=0;swimlaneHead=0;swimlaneBody=0;fillColor=none;collapsible=0;dropTarget=0;points=[[0,0.5],[1,0.5]];portConstraint=eastwest;top=0;left=0;right=0;bottom=0;rounded=1;labelBackgroundColor=none;strokeColor=#788AA3;fontColor=#46495D;fontFamily=Times New Roman;swimlaneFillColor=none;strokeWidth=0;" vertex="1" parent="7E4y---loc7PawPUPzIR-195">
          <mxGeometry y="120" width="180" height="30" as="geometry" />
        </mxCell>
        <mxCell id="7E4y---loc7PawPUPzIR-206" value="" style="shape=partialRectangle;connectable=0;fillColor=none;top=0;left=0;bottom=0;right=0;editable=1;overflow=hidden;whiteSpace=wrap;html=1;rounded=1;labelBackgroundColor=none;strokeColor=#788AA3;fontColor=#46495D;fontFamily=Times New Roman;swimlaneFillColor=none;strokeWidth=0;" vertex="1" parent="7E4y---loc7PawPUPzIR-205">
          <mxGeometry width="30" height="30" as="geometry">
            <mxRectangle width="30" height="30" as="alternateBounds" />
          </mxGeometry>
        </mxCell>
        <mxCell id="7E4y---loc7PawPUPzIR-207" value="email" style="shape=partialRectangle;connectable=0;fillColor=none;top=0;left=0;bottom=0;right=0;align=left;spacingLeft=6;overflow=hidden;whiteSpace=wrap;html=1;rounded=1;labelBackgroundColor=none;strokeColor=#788AA3;fontColor=#46495D;fontFamily=Times New Roman;swimlaneFillColor=none;strokeWidth=0;" vertex="1" parent="7E4y---loc7PawPUPzIR-205">
          <mxGeometry x="30" width="150" height="30" as="geometry">
            <mxRectangle width="150" height="30" as="alternateBounds" />
          </mxGeometry>
        </mxCell>
        <mxCell id="7E4y---loc7PawPUPzIR-209" value="" style="shape=tableRow;horizontal=0;startSize=0;swimlaneHead=0;swimlaneBody=0;fillColor=none;collapsible=0;dropTarget=0;points=[[0,0.5],[1,0.5]];portConstraint=eastwest;top=0;left=0;right=0;bottom=0;rounded=1;labelBackgroundColor=none;strokeColor=#788AA3;fontColor=#46495D;fontFamily=Times New Roman;swimlaneFillColor=none;strokeWidth=0;" vertex="1" parent="7E4y---loc7PawPUPzIR-195">
          <mxGeometry y="150" width="180" height="30" as="geometry" />
        </mxCell>
        <mxCell id="7E4y---loc7PawPUPzIR-210" value="" style="shape=partialRectangle;connectable=0;fillColor=none;top=0;left=0;bottom=0;right=0;editable=1;overflow=hidden;whiteSpace=wrap;html=1;rounded=1;labelBackgroundColor=none;strokeColor=#788AA3;fontColor=#46495D;fontFamily=Times New Roman;swimlaneFillColor=none;strokeWidth=0;" vertex="1" parent="7E4y---loc7PawPUPzIR-209">
          <mxGeometry width="30" height="30" as="geometry">
            <mxRectangle width="30" height="30" as="alternateBounds" />
          </mxGeometry>
        </mxCell>
        <mxCell id="7E4y---loc7PawPUPzIR-211" value="phone" style="shape=partialRectangle;connectable=0;fillColor=none;top=0;left=0;bottom=0;right=0;align=left;spacingLeft=6;overflow=hidden;whiteSpace=wrap;html=1;rounded=1;labelBackgroundColor=none;strokeColor=#788AA3;fontColor=#46495D;fontFamily=Times New Roman;swimlaneFillColor=none;strokeWidth=0;" vertex="1" parent="7E4y---loc7PawPUPzIR-209">
          <mxGeometry x="30" width="150" height="30" as="geometry">
            <mxRectangle width="150" height="30" as="alternateBounds" />
          </mxGeometry>
        </mxCell>
        <mxCell id="7E4y---loc7PawPUPzIR-212" value="" style="shape=tableRow;horizontal=0;startSize=0;swimlaneHead=0;swimlaneBody=0;fillColor=none;collapsible=0;dropTarget=0;points=[[0,0.5],[1,0.5]];portConstraint=eastwest;top=0;left=0;right=0;bottom=0;rounded=1;labelBackgroundColor=none;strokeColor=#788AA3;fontColor=#46495D;fontFamily=Times New Roman;swimlaneFillColor=none;strokeWidth=0;" vertex="1" parent="7E4y---loc7PawPUPzIR-195">
          <mxGeometry y="180" width="180" height="30" as="geometry" />
        </mxCell>
        <mxCell id="7E4y---loc7PawPUPzIR-213" value="" style="shape=partialRectangle;connectable=0;fillColor=none;top=0;left=0;bottom=0;right=0;editable=1;overflow=hidden;whiteSpace=wrap;html=1;rounded=1;labelBackgroundColor=none;strokeColor=#788AA3;fontColor=#46495D;fontFamily=Times New Roman;swimlaneFillColor=none;strokeWidth=0;" vertex="1" parent="7E4y---loc7PawPUPzIR-212">
          <mxGeometry width="30" height="30" as="geometry">
            <mxRectangle width="30" height="30" as="alternateBounds" />
          </mxGeometry>
        </mxCell>
        <mxCell id="7E4y---loc7PawPUPzIR-214" value="password_hash" style="shape=partialRectangle;connectable=0;fillColor=none;top=0;left=0;bottom=0;right=0;align=left;spacingLeft=6;overflow=hidden;whiteSpace=wrap;html=1;rounded=1;labelBackgroundColor=none;strokeColor=#788AA3;fontColor=#46495D;fontFamily=Times New Roman;swimlaneFillColor=none;strokeWidth=0;" vertex="1" parent="7E4y---loc7PawPUPzIR-212">
          <mxGeometry x="30" width="150" height="30" as="geometry">
            <mxRectangle width="150" height="30" as="alternateBounds" />
          </mxGeometry>
        </mxCell>
        <mxCell id="7E4y---loc7PawPUPzIR-215" value="" style="shape=tableRow;horizontal=0;startSize=0;swimlaneHead=0;swimlaneBody=0;fillColor=none;collapsible=0;dropTarget=0;points=[[0,0.5],[1,0.5]];portConstraint=eastwest;top=0;left=0;right=0;bottom=0;rounded=1;labelBackgroundColor=none;strokeColor=#788AA3;fontColor=#46495D;fontFamily=Times New Roman;swimlaneFillColor=none;strokeWidth=0;" vertex="1" parent="7E4y---loc7PawPUPzIR-195">
          <mxGeometry y="210" width="180" height="30" as="geometry" />
        </mxCell>
        <mxCell id="7E4y---loc7PawPUPzIR-216" value="" style="shape=partialRectangle;connectable=0;fillColor=none;top=0;left=0;bottom=0;right=0;editable=1;overflow=hidden;whiteSpace=wrap;html=1;rounded=1;labelBackgroundColor=none;strokeColor=#788AA3;fontColor=#46495D;fontFamily=Times New Roman;swimlaneFillColor=none;strokeWidth=0;" vertex="1" parent="7E4y---loc7PawPUPzIR-215">
          <mxGeometry width="30" height="30" as="geometry">
            <mxRectangle width="30" height="30" as="alternateBounds" />
          </mxGeometry>
        </mxCell>
        <mxCell id="7E4y---loc7PawPUPzIR-217" value="registration_date" style="shape=partialRectangle;connectable=0;fillColor=none;top=0;left=0;bottom=0;right=0;align=left;spacingLeft=6;overflow=hidden;whiteSpace=wrap;html=1;rounded=1;labelBackgroundColor=none;strokeColor=#788AA3;fontColor=#46495D;fontFamily=Times New Roman;swimlaneFillColor=none;strokeWidth=0;" vertex="1" parent="7E4y---loc7PawPUPzIR-215">
          <mxGeometry x="30" width="150" height="30" as="geometry">
            <mxRectangle width="150" height="30" as="alternateBounds" />
          </mxGeometry>
        </mxCell>
        <mxCell id="7E4y---loc7PawPUPzIR-221" value="customer_address" style="shape=table;startSize=35;container=1;collapsible=1;childLayout=tableLayout;fixedRows=1;rowLines=0;fontStyle=1;align=center;resizeLast=1;html=1;whiteSpace=wrap;rounded=1;shadow=1;labelBackgroundColor=none;fillColor=#f5f5f5;strokeColor=#666666;fontFamily=Times New Roman;swimlaneFillColor=none;strokeWidth=0;gradientColor=#b3b3b3;" vertex="1" parent="1">
          <mxGeometry x="222" y="-131.5" width="180" height="125" as="geometry" />
        </mxCell>
        <mxCell id="7E4y---loc7PawPUPzIR-222" value="" style="shape=tableRow;horizontal=0;startSize=0;swimlaneHead=0;swimlaneBody=0;fillColor=none;collapsible=0;dropTarget=0;points=[[0,0.5],[1,0.5]];portConstraint=eastwest;top=0;left=0;right=0;bottom=0;html=1;rounded=1;labelBackgroundColor=none;strokeColor=#788AA3;fontColor=#46495D;fontFamily=Times New Roman;swimlaneFillColor=none;strokeWidth=0;" vertex="1" parent="7E4y---loc7PawPUPzIR-221">
          <mxGeometry y="35" width="180" height="30" as="geometry" />
        </mxCell>
        <mxCell id="7E4y---loc7PawPUPzIR-223" value="PK,FK1" style="shape=partialRectangle;connectable=0;fillColor=none;top=0;left=0;bottom=0;right=0;fontStyle=1;overflow=hidden;html=1;whiteSpace=wrap;rounded=1;labelBackgroundColor=none;strokeColor=#788AA3;fontColor=#46495D;fontFamily=Times New Roman;swimlaneFillColor=none;strokeWidth=0;" vertex="1" parent="7E4y---loc7PawPUPzIR-222">
          <mxGeometry width="60" height="30" as="geometry">
            <mxRectangle width="60" height="30" as="alternateBounds" />
          </mxGeometry>
        </mxCell>
        <mxCell id="7E4y---loc7PawPUPzIR-224" value="customer_id" style="shape=partialRectangle;connectable=0;fillColor=none;top=0;left=0;bottom=0;right=0;align=left;spacingLeft=6;fontStyle=5;overflow=hidden;html=1;whiteSpace=wrap;rounded=1;labelBackgroundColor=none;strokeColor=#788AA3;fontColor=#46495D;fontFamily=Times New Roman;swimlaneFillColor=none;strokeWidth=0;" vertex="1" parent="7E4y---loc7PawPUPzIR-222">
          <mxGeometry x="60" width="120" height="30" as="geometry">
            <mxRectangle width="120" height="30" as="alternateBounds" />
          </mxGeometry>
        </mxCell>
        <mxCell id="7E4y---loc7PawPUPzIR-225" value="" style="shape=tableRow;horizontal=0;startSize=0;swimlaneHead=0;swimlaneBody=0;fillColor=none;collapsible=0;dropTarget=0;points=[[0,0.5],[1,0.5]];portConstraint=eastwest;top=0;left=0;right=0;bottom=1;html=1;rounded=1;labelBackgroundColor=none;strokeColor=#788AA3;fontColor=#46495D;fontFamily=Times New Roman;swimlaneFillColor=none;strokeWidth=0;" vertex="1" parent="7E4y---loc7PawPUPzIR-221">
          <mxGeometry y="65" width="180" height="30" as="geometry" />
        </mxCell>
        <mxCell id="7E4y---loc7PawPUPzIR-226" value="PK,FK2" style="shape=partialRectangle;connectable=0;fillColor=none;top=0;left=0;bottom=0;right=0;fontStyle=1;overflow=hidden;html=1;whiteSpace=wrap;rounded=1;labelBackgroundColor=none;strokeColor=#788AA3;fontColor=#46495D;fontFamily=Times New Roman;swimlaneFillColor=none;strokeWidth=0;" vertex="1" parent="7E4y---loc7PawPUPzIR-225">
          <mxGeometry width="60" height="30" as="geometry">
            <mxRectangle width="60" height="30" as="alternateBounds" />
          </mxGeometry>
        </mxCell>
        <mxCell id="7E4y---loc7PawPUPzIR-227" value="address_id" style="shape=partialRectangle;connectable=0;fillColor=none;top=0;left=0;bottom=0;right=0;align=left;spacingLeft=6;fontStyle=5;overflow=hidden;html=1;whiteSpace=wrap;rounded=1;labelBackgroundColor=none;strokeColor=#788AA3;fontColor=#46495D;fontFamily=Times New Roman;swimlaneFillColor=none;strokeWidth=0;" vertex="1" parent="7E4y---loc7PawPUPzIR-225">
          <mxGeometry x="60" width="120" height="30" as="geometry">
            <mxRectangle width="120" height="30" as="alternateBounds" />
          </mxGeometry>
        </mxCell>
        <mxCell id="7E4y---loc7PawPUPzIR-228" value="" style="shape=tableRow;horizontal=0;startSize=0;swimlaneHead=0;swimlaneBody=0;fillColor=none;collapsible=0;dropTarget=0;points=[[0,0.5],[1,0.5]];portConstraint=eastwest;top=0;left=0;right=0;bottom=0;html=1;rounded=1;labelBackgroundColor=none;strokeColor=#788AA3;fontColor=#46495D;fontFamily=Times New Roman;swimlaneFillColor=none;strokeWidth=0;" vertex="1" parent="7E4y---loc7PawPUPzIR-221">
          <mxGeometry y="95" width="180" height="30" as="geometry" />
        </mxCell>
        <mxCell id="7E4y---loc7PawPUPzIR-229" value="FK" style="shape=partialRectangle;connectable=0;fillColor=none;top=0;left=0;bottom=0;right=0;editable=1;overflow=hidden;html=1;whiteSpace=wrap;rounded=1;labelBackgroundColor=none;strokeColor=#788AA3;fontColor=#46495D;fontFamily=Times New Roman;swimlaneFillColor=none;strokeWidth=0;" vertex="1" parent="7E4y---loc7PawPUPzIR-228">
          <mxGeometry width="60" height="30" as="geometry">
            <mxRectangle width="60" height="30" as="alternateBounds" />
          </mxGeometry>
        </mxCell>
        <mxCell id="7E4y---loc7PawPUPzIR-230" value="status_id" style="shape=partialRectangle;connectable=0;fillColor=none;top=0;left=0;bottom=0;right=0;align=left;spacingLeft=6;overflow=hidden;html=1;whiteSpace=wrap;rounded=1;labelBackgroundColor=none;strokeColor=#788AA3;fontColor=#46495D;fontFamily=Times New Roman;swimlaneFillColor=none;strokeWidth=0;" vertex="1" parent="7E4y---loc7PawPUPzIR-228">
          <mxGeometry x="60" width="120" height="30" as="geometry">
            <mxRectangle width="120" height="30" as="alternateBounds" />
          </mxGeometry>
        </mxCell>
        <mxCell id="7E4y---loc7PawPUPzIR-262" value="address" style="shape=table;startSize=30;container=1;collapsible=1;childLayout=tableLayout;fixedRows=1;rowLines=0;fontStyle=1;align=center;resizeLast=1;html=1;labelBackgroundColor=none;fillColor=#f5f5f5;strokeColor=#666666;rounded=1;fontFamily=Times New Roman;swimlaneFillColor=none;strokeWidth=0;gradientColor=#b3b3b3;" vertex="1" parent="1">
          <mxGeometry x="222" y="-361" width="180" height="210" as="geometry" />
        </mxCell>
        <mxCell id="7E4y---loc7PawPUPzIR-263" value="" style="shape=tableRow;horizontal=0;startSize=0;swimlaneHead=0;swimlaneBody=0;fillColor=none;collapsible=0;dropTarget=0;points=[[0,0.5],[1,0.5]];portConstraint=eastwest;top=0;left=0;right=0;bottom=1;labelBackgroundColor=none;strokeColor=#788AA3;fontColor=#46495D;rounded=1;fontFamily=Times New Roman;swimlaneFillColor=none;strokeWidth=0;" vertex="1" parent="7E4y---loc7PawPUPzIR-262">
          <mxGeometry y="30" width="180" height="30" as="geometry" />
        </mxCell>
        <mxCell id="7E4y---loc7PawPUPzIR-264" value="PK" style="shape=partialRectangle;connectable=0;fillColor=none;top=0;left=0;bottom=0;right=0;fontStyle=1;overflow=hidden;whiteSpace=wrap;html=1;labelBackgroundColor=none;strokeColor=#788AA3;fontColor=#46495D;rounded=1;fontFamily=Times New Roman;swimlaneFillColor=none;strokeWidth=0;" vertex="1" parent="7E4y---loc7PawPUPzIR-263">
          <mxGeometry width="30" height="30" as="geometry">
            <mxRectangle width="30" height="30" as="alternateBounds" />
          </mxGeometry>
        </mxCell>
        <mxCell id="7E4y---loc7PawPUPzIR-265" value="addres_id" style="shape=partialRectangle;connectable=0;fillColor=none;top=0;left=0;bottom=0;right=0;align=left;spacingLeft=6;fontStyle=5;overflow=hidden;whiteSpace=wrap;html=1;labelBackgroundColor=none;strokeColor=#788AA3;fontColor=#46495D;rounded=1;fontFamily=Times New Roman;swimlaneFillColor=none;strokeWidth=0;" vertex="1" parent="7E4y---loc7PawPUPzIR-263">
          <mxGeometry x="30" width="150" height="30" as="geometry">
            <mxRectangle width="150" height="30" as="alternateBounds" />
          </mxGeometry>
        </mxCell>
        <mxCell id="7E4y---loc7PawPUPzIR-266" value="" style="shape=tableRow;horizontal=0;startSize=0;swimlaneHead=0;swimlaneBody=0;fillColor=none;collapsible=0;dropTarget=0;points=[[0,0.5],[1,0.5]];portConstraint=eastwest;top=0;left=0;right=0;bottom=0;labelBackgroundColor=none;strokeColor=#788AA3;fontColor=#46495D;rounded=1;fontFamily=Times New Roman;swimlaneFillColor=none;strokeWidth=0;" vertex="1" parent="7E4y---loc7PawPUPzIR-262">
          <mxGeometry y="60" width="180" height="30" as="geometry" />
        </mxCell>
        <mxCell id="7E4y---loc7PawPUPzIR-267" value="" style="shape=partialRectangle;connectable=0;fillColor=none;top=0;left=0;bottom=0;right=0;editable=1;overflow=hidden;whiteSpace=wrap;html=1;labelBackgroundColor=none;strokeColor=#788AA3;fontColor=#46495D;rounded=1;fontFamily=Times New Roman;swimlaneFillColor=none;strokeWidth=0;" vertex="1" parent="7E4y---loc7PawPUPzIR-266">
          <mxGeometry width="30" height="30" as="geometry">
            <mxRectangle width="30" height="30" as="alternateBounds" />
          </mxGeometry>
        </mxCell>
        <mxCell id="7E4y---loc7PawPUPzIR-268" value="street_number" style="shape=partialRectangle;connectable=0;fillColor=none;top=0;left=0;bottom=0;right=0;align=left;spacingLeft=6;overflow=hidden;whiteSpace=wrap;html=1;labelBackgroundColor=none;strokeColor=#788AA3;fontColor=#46495D;rounded=1;fontFamily=Times New Roman;swimlaneFillColor=none;strokeWidth=0;" vertex="1" parent="7E4y---loc7PawPUPzIR-266">
          <mxGeometry x="30" width="150" height="30" as="geometry">
            <mxRectangle width="150" height="30" as="alternateBounds" />
          </mxGeometry>
        </mxCell>
        <mxCell id="7E4y---loc7PawPUPzIR-269" value="" style="shape=tableRow;horizontal=0;startSize=0;swimlaneHead=0;swimlaneBody=0;fillColor=none;collapsible=0;dropTarget=0;points=[[0,0.5],[1,0.5]];portConstraint=eastwest;top=0;left=0;right=0;bottom=0;labelBackgroundColor=none;strokeColor=#788AA3;fontColor=#46495D;rounded=1;fontFamily=Times New Roman;swimlaneFillColor=none;strokeWidth=0;" vertex="1" parent="7E4y---loc7PawPUPzIR-262">
          <mxGeometry y="90" width="180" height="30" as="geometry" />
        </mxCell>
        <mxCell id="7E4y---loc7PawPUPzIR-270" value="" style="shape=partialRectangle;connectable=0;fillColor=none;top=0;left=0;bottom=0;right=0;editable=1;overflow=hidden;whiteSpace=wrap;html=1;labelBackgroundColor=none;strokeColor=#788AA3;fontColor=#46495D;rounded=1;fontFamily=Times New Roman;swimlaneFillColor=none;strokeWidth=0;" vertex="1" parent="7E4y---loc7PawPUPzIR-269">
          <mxGeometry width="30" height="30" as="geometry">
            <mxRectangle width="30" height="30" as="alternateBounds" />
          </mxGeometry>
        </mxCell>
        <mxCell id="7E4y---loc7PawPUPzIR-271" value="street_name" style="shape=partialRectangle;connectable=0;fillColor=none;top=0;left=0;bottom=0;right=0;align=left;spacingLeft=6;overflow=hidden;whiteSpace=wrap;html=1;labelBackgroundColor=none;strokeColor=#788AA3;fontColor=#46495D;rounded=1;fontFamily=Times New Roman;swimlaneFillColor=none;strokeWidth=0;" vertex="1" parent="7E4y---loc7PawPUPzIR-269">
          <mxGeometry x="30" width="150" height="30" as="geometry">
            <mxRectangle width="150" height="30" as="alternateBounds" />
          </mxGeometry>
        </mxCell>
        <mxCell id="7E4y---loc7PawPUPzIR-272" value="" style="shape=tableRow;horizontal=0;startSize=0;swimlaneHead=0;swimlaneBody=0;fillColor=none;collapsible=0;dropTarget=0;points=[[0,0.5],[1,0.5]];portConstraint=eastwest;top=0;left=0;right=0;bottom=0;labelBackgroundColor=none;strokeColor=#788AA3;fontColor=#46495D;rounded=1;fontFamily=Times New Roman;swimlaneFillColor=none;strokeWidth=0;" vertex="1" parent="7E4y---loc7PawPUPzIR-262">
          <mxGeometry y="120" width="180" height="30" as="geometry" />
        </mxCell>
        <mxCell id="7E4y---loc7PawPUPzIR-273" value="" style="shape=partialRectangle;connectable=0;fillColor=none;top=0;left=0;bottom=0;right=0;editable=1;overflow=hidden;whiteSpace=wrap;html=1;labelBackgroundColor=none;strokeColor=#788AA3;fontColor=#46495D;rounded=1;fontFamily=Times New Roman;swimlaneFillColor=none;strokeWidth=0;" vertex="1" parent="7E4y---loc7PawPUPzIR-272">
          <mxGeometry width="30" height="30" as="geometry">
            <mxRectangle width="30" height="30" as="alternateBounds" />
          </mxGeometry>
        </mxCell>
        <mxCell id="7E4y---loc7PawPUPzIR-274" value="city" style="shape=partialRectangle;connectable=0;fillColor=none;top=0;left=0;bottom=0;right=0;align=left;spacingLeft=6;overflow=hidden;whiteSpace=wrap;html=1;labelBackgroundColor=none;strokeColor=#788AA3;fontColor=#46495D;rounded=1;fontFamily=Times New Roman;swimlaneFillColor=none;strokeWidth=0;" vertex="1" parent="7E4y---loc7PawPUPzIR-272">
          <mxGeometry x="30" width="150" height="30" as="geometry">
            <mxRectangle width="150" height="30" as="alternateBounds" />
          </mxGeometry>
        </mxCell>
        <mxCell id="7E4y---loc7PawPUPzIR-275" value="" style="shape=tableRow;horizontal=0;startSize=0;swimlaneHead=0;swimlaneBody=0;fillColor=none;collapsible=0;dropTarget=0;points=[[0,0.5],[1,0.5]];portConstraint=eastwest;top=0;left=0;right=0;bottom=0;labelBackgroundColor=none;strokeColor=#788AA3;fontColor=#46495D;rounded=1;fontFamily=Times New Roman;swimlaneFillColor=none;strokeWidth=0;" vertex="1" parent="7E4y---loc7PawPUPzIR-262">
          <mxGeometry y="150" width="180" height="30" as="geometry" />
        </mxCell>
        <mxCell id="7E4y---loc7PawPUPzIR-276" value="FK" style="shape=partialRectangle;connectable=0;fillColor=none;top=0;left=0;bottom=0;right=0;editable=1;overflow=hidden;whiteSpace=wrap;html=1;labelBackgroundColor=none;strokeColor=#788AA3;fontColor=#46495D;rounded=1;fontFamily=Times New Roman;swimlaneFillColor=none;strokeWidth=0;" vertex="1" parent="7E4y---loc7PawPUPzIR-275">
          <mxGeometry width="30" height="30" as="geometry">
            <mxRectangle width="30" height="30" as="alternateBounds" />
          </mxGeometry>
        </mxCell>
        <mxCell id="7E4y---loc7PawPUPzIR-277" value="country_id" style="shape=partialRectangle;connectable=0;fillColor=none;top=0;left=0;bottom=0;right=0;align=left;spacingLeft=6;overflow=hidden;whiteSpace=wrap;html=1;labelBackgroundColor=none;strokeColor=#788AA3;fontColor=#46495D;rounded=1;fontFamily=Times New Roman;swimlaneFillColor=none;strokeWidth=0;" vertex="1" parent="7E4y---loc7PawPUPzIR-275">
          <mxGeometry x="30" width="150" height="30" as="geometry">
            <mxRectangle width="150" height="30" as="alternateBounds" />
          </mxGeometry>
        </mxCell>
        <mxCell id="7E4y---loc7PawPUPzIR-278" value="" style="shape=tableRow;horizontal=0;startSize=0;swimlaneHead=0;swimlaneBody=0;fillColor=none;collapsible=0;dropTarget=0;points=[[0,0.5],[1,0.5]];portConstraint=eastwest;top=0;left=0;right=0;bottom=0;labelBackgroundColor=none;strokeColor=#788AA3;fontColor=#46495D;rounded=1;fontFamily=Times New Roman;swimlaneFillColor=none;strokeWidth=0;" vertex="1" parent="7E4y---loc7PawPUPzIR-262">
          <mxGeometry y="180" width="180" height="30" as="geometry" />
        </mxCell>
        <mxCell id="7E4y---loc7PawPUPzIR-279" value="" style="shape=partialRectangle;connectable=0;fillColor=none;top=0;left=0;bottom=0;right=0;editable=1;overflow=hidden;whiteSpace=wrap;html=1;labelBackgroundColor=none;strokeColor=#788AA3;fontColor=#46495D;rounded=1;fontFamily=Times New Roman;swimlaneFillColor=none;strokeWidth=0;" vertex="1" parent="7E4y---loc7PawPUPzIR-278">
          <mxGeometry width="30" height="30" as="geometry">
            <mxRectangle width="30" height="30" as="alternateBounds" />
          </mxGeometry>
        </mxCell>
        <mxCell id="7E4y---loc7PawPUPzIR-280" value="postal_code" style="shape=partialRectangle;connectable=0;fillColor=none;top=0;left=0;bottom=0;right=0;align=left;spacingLeft=6;overflow=hidden;whiteSpace=wrap;html=1;labelBackgroundColor=none;strokeColor=#788AA3;fontColor=#46495D;rounded=1;fontFamily=Times New Roman;swimlaneFillColor=none;strokeWidth=0;" vertex="1" parent="7E4y---loc7PawPUPzIR-278">
          <mxGeometry x="30" width="150" height="30" as="geometry">
            <mxRectangle width="150" height="30" as="alternateBounds" />
          </mxGeometry>
        </mxCell>
        <mxCell id="7E4y---loc7PawPUPzIR-284" value="address_status" style="shape=table;startSize=30;container=1;collapsible=1;childLayout=tableLayout;fixedRows=1;rowLines=0;fontStyle=1;align=center;resizeLast=1;html=1;rounded=1;strokeColor=#666666;fillColor=#f5f5f5;labelBackgroundColor=none;fontFamily=Times New Roman;swimlaneFillColor=none;strokeWidth=0;gradientColor=#b3b3b3;" vertex="1" parent="1">
          <mxGeometry x="222" y="84" width="180" height="90" as="geometry" />
        </mxCell>
        <mxCell id="7E4y---loc7PawPUPzIR-285" value="" style="shape=tableRow;horizontal=0;startSize=0;swimlaneHead=0;swimlaneBody=0;fillColor=none;collapsible=0;dropTarget=0;points=[[0,0.5],[1,0.5]];portConstraint=eastwest;top=0;left=0;right=0;bottom=1;rounded=1;strokeColor=#788AA3;fontColor=#46495D;labelBackgroundColor=none;fontFamily=Times New Roman;swimlaneFillColor=none;strokeWidth=0;" vertex="1" parent="7E4y---loc7PawPUPzIR-284">
          <mxGeometry y="30" width="180" height="30" as="geometry" />
        </mxCell>
        <mxCell id="7E4y---loc7PawPUPzIR-286" value="PK" style="shape=partialRectangle;connectable=0;fillColor=none;top=0;left=0;bottom=0;right=0;fontStyle=1;overflow=hidden;whiteSpace=wrap;html=1;rounded=1;strokeColor=#788AA3;fontColor=#46495D;labelBackgroundColor=none;fontFamily=Times New Roman;swimlaneFillColor=none;strokeWidth=0;" vertex="1" parent="7E4y---loc7PawPUPzIR-285">
          <mxGeometry width="30" height="30" as="geometry">
            <mxRectangle width="30" height="30" as="alternateBounds" />
          </mxGeometry>
        </mxCell>
        <mxCell id="7E4y---loc7PawPUPzIR-287" value="status_id" style="shape=partialRectangle;connectable=0;fillColor=none;top=0;left=0;bottom=0;right=0;align=left;spacingLeft=6;fontStyle=5;overflow=hidden;whiteSpace=wrap;html=1;rounded=1;strokeColor=#788AA3;fontColor=#46495D;labelBackgroundColor=none;fontFamily=Times New Roman;swimlaneFillColor=none;strokeWidth=0;" vertex="1" parent="7E4y---loc7PawPUPzIR-285">
          <mxGeometry x="30" width="150" height="30" as="geometry">
            <mxRectangle width="150" height="30" as="alternateBounds" />
          </mxGeometry>
        </mxCell>
        <mxCell id="7E4y---loc7PawPUPzIR-288" value="" style="shape=tableRow;horizontal=0;startSize=0;swimlaneHead=0;swimlaneBody=0;fillColor=none;collapsible=0;dropTarget=0;points=[[0,0.5],[1,0.5]];portConstraint=eastwest;top=0;left=0;right=0;bottom=0;rounded=1;strokeColor=#788AA3;fontColor=#46495D;labelBackgroundColor=none;fontFamily=Times New Roman;swimlaneFillColor=none;strokeWidth=0;" vertex="1" parent="7E4y---loc7PawPUPzIR-284">
          <mxGeometry y="60" width="180" height="30" as="geometry" />
        </mxCell>
        <mxCell id="7E4y---loc7PawPUPzIR-289" value="" style="shape=partialRectangle;connectable=0;fillColor=none;top=0;left=0;bottom=0;right=0;editable=1;overflow=hidden;whiteSpace=wrap;html=1;rounded=1;strokeColor=#788AA3;fontColor=#46495D;labelBackgroundColor=none;fontFamily=Times New Roman;swimlaneFillColor=none;strokeWidth=0;" vertex="1" parent="7E4y---loc7PawPUPzIR-288">
          <mxGeometry width="30" height="30" as="geometry">
            <mxRectangle width="30" height="30" as="alternateBounds" />
          </mxGeometry>
        </mxCell>
        <mxCell id="7E4y---loc7PawPUPzIR-290" value="address_status" style="shape=partialRectangle;connectable=0;fillColor=none;top=0;left=0;bottom=0;right=0;align=left;spacingLeft=6;overflow=hidden;whiteSpace=wrap;html=1;rounded=1;strokeColor=#788AA3;fontColor=#46495D;labelBackgroundColor=none;fontFamily=Times New Roman;swimlaneFillColor=none;strokeWidth=0;" vertex="1" parent="7E4y---loc7PawPUPzIR-288">
          <mxGeometry x="30" width="150" height="30" as="geometry">
            <mxRectangle width="150" height="30" as="alternateBounds" />
          </mxGeometry>
        </mxCell>
        <mxCell id="7E4y---loc7PawPUPzIR-304" value="cust_order" style="shape=table;startSize=30;container=1;collapsible=1;childLayout=tableLayout;fixedRows=1;rowLines=0;fontStyle=1;align=center;resizeLast=1;html=1;labelBackgroundColor=none;fillColor=#f5f5f5;strokeColor=#666666;rounded=1;fontFamily=Times New Roman;swimlaneFillColor=none;strokeWidth=0;gradientColor=#b3b3b3;" vertex="1" parent="1">
          <mxGeometry x="-269" y="-204" width="180" height="210" as="geometry" />
        </mxCell>
        <mxCell id="7E4y---loc7PawPUPzIR-305" value="" style="shape=tableRow;horizontal=0;startSize=0;swimlaneHead=0;swimlaneBody=0;fillColor=none;collapsible=0;dropTarget=0;points=[[0,0.5],[1,0.5]];portConstraint=eastwest;top=0;left=0;right=0;bottom=1;labelBackgroundColor=none;strokeColor=#788AA3;fontColor=#46495D;rounded=1;fontFamily=Times New Roman;swimlaneFillColor=none;strokeWidth=0;" vertex="1" parent="7E4y---loc7PawPUPzIR-304">
          <mxGeometry y="30" width="180" height="30" as="geometry" />
        </mxCell>
        <mxCell id="7E4y---loc7PawPUPzIR-306" value="PK" style="shape=partialRectangle;connectable=0;fillColor=none;top=0;left=0;bottom=0;right=0;fontStyle=1;overflow=hidden;whiteSpace=wrap;html=1;labelBackgroundColor=none;strokeColor=#788AA3;fontColor=#46495D;rounded=1;fontFamily=Times New Roman;swimlaneFillColor=none;strokeWidth=0;" vertex="1" parent="7E4y---loc7PawPUPzIR-305">
          <mxGeometry width="30" height="30" as="geometry">
            <mxRectangle width="30" height="30" as="alternateBounds" />
          </mxGeometry>
        </mxCell>
        <mxCell id="7E4y---loc7PawPUPzIR-307" value="order_id" style="shape=partialRectangle;connectable=0;fillColor=none;top=0;left=0;bottom=0;right=0;align=left;spacingLeft=6;fontStyle=5;overflow=hidden;whiteSpace=wrap;html=1;labelBackgroundColor=none;strokeColor=#788AA3;fontColor=#46495D;rounded=1;fontFamily=Times New Roman;swimlaneFillColor=none;strokeWidth=0;" vertex="1" parent="7E4y---loc7PawPUPzIR-305">
          <mxGeometry x="30" width="150" height="30" as="geometry">
            <mxRectangle width="150" height="30" as="alternateBounds" />
          </mxGeometry>
        </mxCell>
        <mxCell id="7E4y---loc7PawPUPzIR-308" value="" style="shape=tableRow;horizontal=0;startSize=0;swimlaneHead=0;swimlaneBody=0;fillColor=none;collapsible=0;dropTarget=0;points=[[0,0.5],[1,0.5]];portConstraint=eastwest;top=0;left=0;right=0;bottom=0;labelBackgroundColor=none;strokeColor=#788AA3;fontColor=#46495D;rounded=1;fontFamily=Times New Roman;swimlaneFillColor=none;strokeWidth=0;" vertex="1" parent="7E4y---loc7PawPUPzIR-304">
          <mxGeometry y="60" width="180" height="30" as="geometry" />
        </mxCell>
        <mxCell id="7E4y---loc7PawPUPzIR-309" value="" style="shape=partialRectangle;connectable=0;fillColor=none;top=0;left=0;bottom=0;right=0;editable=1;overflow=hidden;whiteSpace=wrap;html=1;labelBackgroundColor=none;strokeColor=#788AA3;fontColor=#46495D;rounded=1;fontFamily=Times New Roman;swimlaneFillColor=none;strokeWidth=0;" vertex="1" parent="7E4y---loc7PawPUPzIR-308">
          <mxGeometry width="30" height="30" as="geometry">
            <mxRectangle width="30" height="30" as="alternateBounds" />
          </mxGeometry>
        </mxCell>
        <mxCell id="7E4y---loc7PawPUPzIR-310" value="order_date" style="shape=partialRectangle;connectable=0;fillColor=none;top=0;left=0;bottom=0;right=0;align=left;spacingLeft=6;overflow=hidden;whiteSpace=wrap;html=1;labelBackgroundColor=none;strokeColor=#788AA3;fontColor=#46495D;rounded=1;fontFamily=Times New Roman;swimlaneFillColor=none;strokeWidth=0;" vertex="1" parent="7E4y---loc7PawPUPzIR-308">
          <mxGeometry x="30" width="150" height="30" as="geometry">
            <mxRectangle width="150" height="30" as="alternateBounds" />
          </mxGeometry>
        </mxCell>
        <mxCell id="7E4y---loc7PawPUPzIR-311" value="" style="shape=tableRow;horizontal=0;startSize=0;swimlaneHead=0;swimlaneBody=0;fillColor=none;collapsible=0;dropTarget=0;points=[[0,0.5],[1,0.5]];portConstraint=eastwest;top=0;left=0;right=0;bottom=0;labelBackgroundColor=none;strokeColor=#788AA3;fontColor=#46495D;rounded=1;fontFamily=Times New Roman;swimlaneFillColor=none;strokeWidth=0;" vertex="1" parent="7E4y---loc7PawPUPzIR-304">
          <mxGeometry y="90" width="180" height="30" as="geometry" />
        </mxCell>
        <mxCell id="7E4y---loc7PawPUPzIR-312" value="FK" style="shape=partialRectangle;connectable=0;fillColor=none;top=0;left=0;bottom=0;right=0;editable=1;overflow=hidden;whiteSpace=wrap;html=1;labelBackgroundColor=none;strokeColor=#788AA3;fontColor=#46495D;rounded=1;fontFamily=Times New Roman;swimlaneFillColor=none;strokeWidth=0;" vertex="1" parent="7E4y---loc7PawPUPzIR-311">
          <mxGeometry width="30" height="30" as="geometry">
            <mxRectangle width="30" height="30" as="alternateBounds" />
          </mxGeometry>
        </mxCell>
        <mxCell id="7E4y---loc7PawPUPzIR-313" value="customer_id" style="shape=partialRectangle;connectable=0;fillColor=none;top=0;left=0;bottom=0;right=0;align=left;spacingLeft=6;overflow=hidden;whiteSpace=wrap;html=1;labelBackgroundColor=none;strokeColor=#788AA3;fontColor=#46495D;rounded=1;fontFamily=Times New Roman;swimlaneFillColor=none;strokeWidth=0;" vertex="1" parent="7E4y---loc7PawPUPzIR-311">
          <mxGeometry x="30" width="150" height="30" as="geometry">
            <mxRectangle width="150" height="30" as="alternateBounds" />
          </mxGeometry>
        </mxCell>
        <mxCell id="7E4y---loc7PawPUPzIR-314" value="" style="shape=tableRow;horizontal=0;startSize=0;swimlaneHead=0;swimlaneBody=0;fillColor=none;collapsible=0;dropTarget=0;points=[[0,0.5],[1,0.5]];portConstraint=eastwest;top=0;left=0;right=0;bottom=0;labelBackgroundColor=none;strokeColor=#788AA3;fontColor=#46495D;rounded=1;fontFamily=Times New Roman;swimlaneFillColor=none;strokeWidth=0;" vertex="1" parent="7E4y---loc7PawPUPzIR-304">
          <mxGeometry y="120" width="180" height="30" as="geometry" />
        </mxCell>
        <mxCell id="7E4y---loc7PawPUPzIR-315" value="FK" style="shape=partialRectangle;connectable=0;fillColor=none;top=0;left=0;bottom=0;right=0;editable=1;overflow=hidden;whiteSpace=wrap;html=1;labelBackgroundColor=none;strokeColor=#788AA3;fontColor=#46495D;rounded=1;fontFamily=Times New Roman;swimlaneFillColor=none;strokeWidth=0;" vertex="1" parent="7E4y---loc7PawPUPzIR-314">
          <mxGeometry width="30" height="30" as="geometry">
            <mxRectangle width="30" height="30" as="alternateBounds" />
          </mxGeometry>
        </mxCell>
        <mxCell id="7E4y---loc7PawPUPzIR-316" value="shipping_method_id" style="shape=partialRectangle;connectable=0;fillColor=none;top=0;left=0;bottom=0;right=0;align=left;spacingLeft=6;overflow=hidden;whiteSpace=wrap;html=1;labelBackgroundColor=none;strokeColor=#788AA3;fontColor=#46495D;rounded=1;fontFamily=Times New Roman;swimlaneFillColor=none;strokeWidth=0;" vertex="1" parent="7E4y---loc7PawPUPzIR-314">
          <mxGeometry x="30" width="150" height="30" as="geometry">
            <mxRectangle width="150" height="30" as="alternateBounds" />
          </mxGeometry>
        </mxCell>
        <mxCell id="7E4y---loc7PawPUPzIR-317" value="" style="shape=tableRow;horizontal=0;startSize=0;swimlaneHead=0;swimlaneBody=0;fillColor=none;collapsible=0;dropTarget=0;points=[[0,0.5],[1,0.5]];portConstraint=eastwest;top=0;left=0;right=0;bottom=0;labelBackgroundColor=none;strokeColor=#788AA3;fontColor=#46495D;rounded=1;fontFamily=Times New Roman;swimlaneFillColor=none;strokeWidth=0;" vertex="1" parent="7E4y---loc7PawPUPzIR-304">
          <mxGeometry y="150" width="180" height="30" as="geometry" />
        </mxCell>
        <mxCell id="7E4y---loc7PawPUPzIR-318" value="FK" style="shape=partialRectangle;connectable=0;fillColor=none;top=0;left=0;bottom=0;right=0;editable=1;overflow=hidden;whiteSpace=wrap;html=1;labelBackgroundColor=none;strokeColor=#788AA3;fontColor=#46495D;rounded=1;fontFamily=Times New Roman;swimlaneFillColor=none;strokeWidth=0;" vertex="1" parent="7E4y---loc7PawPUPzIR-317">
          <mxGeometry width="30" height="30" as="geometry">
            <mxRectangle width="30" height="30" as="alternateBounds" />
          </mxGeometry>
        </mxCell>
        <mxCell id="7E4y---loc7PawPUPzIR-319" value="dest_address_id" style="shape=partialRectangle;connectable=0;fillColor=none;top=0;left=0;bottom=0;right=0;align=left;spacingLeft=6;overflow=hidden;whiteSpace=wrap;html=1;labelBackgroundColor=none;strokeColor=#788AA3;fontColor=#46495D;rounded=1;fontFamily=Times New Roman;swimlaneFillColor=none;strokeWidth=0;" vertex="1" parent="7E4y---loc7PawPUPzIR-317">
          <mxGeometry x="30" width="150" height="30" as="geometry">
            <mxRectangle width="150" height="30" as="alternateBounds" />
          </mxGeometry>
        </mxCell>
        <mxCell id="7E4y---loc7PawPUPzIR-320" value="" style="shape=tableRow;horizontal=0;startSize=0;swimlaneHead=0;swimlaneBody=0;fillColor=none;collapsible=0;dropTarget=0;points=[[0,0.5],[1,0.5]];portConstraint=eastwest;top=0;left=0;right=0;bottom=0;labelBackgroundColor=none;strokeColor=#788AA3;fontColor=#46495D;rounded=1;fontFamily=Times New Roman;swimlaneFillColor=none;strokeWidth=0;" vertex="1" parent="7E4y---loc7PawPUPzIR-304">
          <mxGeometry y="180" width="180" height="30" as="geometry" />
        </mxCell>
        <mxCell id="7E4y---loc7PawPUPzIR-321" value="" style="shape=partialRectangle;connectable=0;fillColor=none;top=0;left=0;bottom=0;right=0;editable=1;overflow=hidden;whiteSpace=wrap;html=1;labelBackgroundColor=none;strokeColor=#788AA3;fontColor=#46495D;rounded=1;fontFamily=Times New Roman;swimlaneFillColor=none;strokeWidth=0;" vertex="1" parent="7E4y---loc7PawPUPzIR-320">
          <mxGeometry width="30" height="30" as="geometry">
            <mxRectangle width="30" height="30" as="alternateBounds" />
          </mxGeometry>
        </mxCell>
        <mxCell id="7E4y---loc7PawPUPzIR-322" value="order_status" style="shape=partialRectangle;connectable=0;fillColor=none;top=0;left=0;bottom=0;right=0;align=left;spacingLeft=6;overflow=hidden;whiteSpace=wrap;html=1;labelBackgroundColor=none;strokeColor=#788AA3;fontColor=#46495D;rounded=1;fontFamily=Times New Roman;swimlaneFillColor=none;strokeWidth=0;" vertex="1" parent="7E4y---loc7PawPUPzIR-320">
          <mxGeometry x="30" width="150" height="30" as="geometry">
            <mxRectangle width="150" height="30" as="alternateBounds" />
          </mxGeometry>
        </mxCell>
        <mxCell id="7E4y---loc7PawPUPzIR-323" value="order_line" style="shape=table;startSize=30;container=1;collapsible=1;childLayout=tableLayout;fixedRows=1;rowLines=0;fontStyle=1;align=center;resizeLast=1;html=1;rounded=1;strokeColor=#666666;fillColor=#f5f5f5;labelBackgroundColor=none;fontFamily=Times New Roman;swimlaneFillColor=none;strokeWidth=0;gradientColor=#b3b3b3;" vertex="1" parent="1">
          <mxGeometry x="-508" y="-414" width="180" height="171" as="geometry" />
        </mxCell>
        <mxCell id="7E4y---loc7PawPUPzIR-324" value="" style="shape=tableRow;horizontal=0;startSize=0;swimlaneHead=0;swimlaneBody=0;fillColor=none;collapsible=0;dropTarget=0;points=[[0,0.5],[1,0.5]];portConstraint=eastwest;top=0;left=0;right=0;bottom=1;rounded=1;strokeColor=#788AA3;fontColor=#46495D;labelBackgroundColor=none;fontFamily=Times New Roman;swimlaneFillColor=none;strokeWidth=0;" vertex="1" parent="7E4y---loc7PawPUPzIR-323">
          <mxGeometry y="30" width="180" height="30" as="geometry" />
        </mxCell>
        <mxCell id="7E4y---loc7PawPUPzIR-325" value="PK" style="shape=partialRectangle;connectable=0;fillColor=none;top=0;left=0;bottom=0;right=0;fontStyle=1;overflow=hidden;whiteSpace=wrap;html=1;rounded=1;strokeColor=#788AA3;fontColor=#46495D;labelBackgroundColor=none;fontFamily=Times New Roman;swimlaneFillColor=none;strokeWidth=0;" vertex="1" parent="7E4y---loc7PawPUPzIR-324">
          <mxGeometry width="30" height="30" as="geometry">
            <mxRectangle width="30" height="30" as="alternateBounds" />
          </mxGeometry>
        </mxCell>
        <mxCell id="7E4y---loc7PawPUPzIR-326" value="line_id" style="shape=partialRectangle;connectable=0;fillColor=none;top=0;left=0;bottom=0;right=0;align=left;spacingLeft=6;fontStyle=5;overflow=hidden;whiteSpace=wrap;html=1;rounded=1;strokeColor=#788AA3;fontColor=#46495D;labelBackgroundColor=none;fontFamily=Times New Roman;swimlaneFillColor=none;strokeWidth=0;" vertex="1" parent="7E4y---loc7PawPUPzIR-324">
          <mxGeometry x="30" width="150" height="30" as="geometry">
            <mxRectangle width="150" height="30" as="alternateBounds" />
          </mxGeometry>
        </mxCell>
        <mxCell id="7E4y---loc7PawPUPzIR-327" value="" style="shape=tableRow;horizontal=0;startSize=0;swimlaneHead=0;swimlaneBody=0;fillColor=none;collapsible=0;dropTarget=0;points=[[0,0.5],[1,0.5]];portConstraint=eastwest;top=0;left=0;right=0;bottom=0;rounded=1;strokeColor=#788AA3;fontColor=#46495D;labelBackgroundColor=none;fontFamily=Times New Roman;swimlaneFillColor=none;strokeWidth=0;" vertex="1" parent="7E4y---loc7PawPUPzIR-323">
          <mxGeometry y="60" width="180" height="30" as="geometry" />
        </mxCell>
        <mxCell id="7E4y---loc7PawPUPzIR-328" value="" style="shape=partialRectangle;connectable=0;fillColor=none;top=0;left=0;bottom=0;right=0;editable=1;overflow=hidden;whiteSpace=wrap;html=1;rounded=1;strokeColor=#788AA3;fontColor=#46495D;labelBackgroundColor=none;fontFamily=Times New Roman;swimlaneFillColor=none;strokeWidth=0;" vertex="1" parent="7E4y---loc7PawPUPzIR-327">
          <mxGeometry width="30" height="30" as="geometry">
            <mxRectangle width="30" height="30" as="alternateBounds" />
          </mxGeometry>
        </mxCell>
        <mxCell id="7E4y---loc7PawPUPzIR-329" value="order_id" style="shape=partialRectangle;connectable=0;fillColor=none;top=0;left=0;bottom=0;right=0;align=left;spacingLeft=6;overflow=hidden;whiteSpace=wrap;html=1;rounded=1;strokeColor=#788AA3;fontColor=#46495D;labelBackgroundColor=none;fontFamily=Times New Roman;swimlaneFillColor=none;strokeWidth=0;" vertex="1" parent="7E4y---loc7PawPUPzIR-327">
          <mxGeometry x="30" width="150" height="30" as="geometry">
            <mxRectangle width="150" height="30" as="alternateBounds" />
          </mxGeometry>
        </mxCell>
        <mxCell id="7E4y---loc7PawPUPzIR-330" value="" style="shape=tableRow;horizontal=0;startSize=0;swimlaneHead=0;swimlaneBody=0;fillColor=none;collapsible=0;dropTarget=0;points=[[0,0.5],[1,0.5]];portConstraint=eastwest;top=0;left=0;right=0;bottom=0;rounded=1;strokeColor=#788AA3;fontColor=#46495D;labelBackgroundColor=none;fontFamily=Times New Roman;swimlaneFillColor=none;strokeWidth=0;" vertex="1" parent="7E4y---loc7PawPUPzIR-323">
          <mxGeometry y="90" width="180" height="20" as="geometry" />
        </mxCell>
        <mxCell id="7E4y---loc7PawPUPzIR-331" value="" style="shape=partialRectangle;connectable=0;fillColor=none;top=0;left=0;bottom=0;right=0;editable=1;overflow=hidden;whiteSpace=wrap;html=1;rounded=1;strokeColor=#788AA3;fontColor=#46495D;labelBackgroundColor=none;fontFamily=Times New Roman;swimlaneFillColor=none;strokeWidth=0;" vertex="1" parent="7E4y---loc7PawPUPzIR-330">
          <mxGeometry width="30" height="20" as="geometry">
            <mxRectangle width="30" height="20" as="alternateBounds" />
          </mxGeometry>
        </mxCell>
        <mxCell id="7E4y---loc7PawPUPzIR-332" value="book_id" style="shape=partialRectangle;connectable=0;fillColor=none;top=0;left=0;bottom=0;right=0;align=left;spacingLeft=6;overflow=hidden;whiteSpace=wrap;html=1;rounded=1;strokeColor=#788AA3;fontColor=#46495D;labelBackgroundColor=none;fontFamily=Times New Roman;swimlaneFillColor=none;strokeWidth=0;" vertex="1" parent="7E4y---loc7PawPUPzIR-330">
          <mxGeometry x="30" width="150" height="20" as="geometry">
            <mxRectangle width="150" height="20" as="alternateBounds" />
          </mxGeometry>
        </mxCell>
        <mxCell id="7E4y---loc7PawPUPzIR-333" value="" style="shape=tableRow;horizontal=0;startSize=0;swimlaneHead=0;swimlaneBody=0;fillColor=none;collapsible=0;dropTarget=0;points=[[0,0.5],[1,0.5]];portConstraint=eastwest;top=0;left=0;right=0;bottom=0;rounded=1;strokeColor=#788AA3;fontColor=#46495D;labelBackgroundColor=none;fontFamily=Times New Roman;swimlaneFillColor=none;strokeWidth=0;" vertex="1" parent="7E4y---loc7PawPUPzIR-323">
          <mxGeometry y="110" width="180" height="30" as="geometry" />
        </mxCell>
        <mxCell id="7E4y---loc7PawPUPzIR-334" value="" style="shape=partialRectangle;connectable=0;fillColor=none;top=0;left=0;bottom=0;right=0;editable=1;overflow=hidden;whiteSpace=wrap;html=1;rounded=1;strokeColor=#788AA3;fontColor=#46495D;labelBackgroundColor=none;fontFamily=Times New Roman;swimlaneFillColor=none;strokeWidth=0;" vertex="1" parent="7E4y---loc7PawPUPzIR-333">
          <mxGeometry width="30" height="30" as="geometry">
            <mxRectangle width="30" height="30" as="alternateBounds" />
          </mxGeometry>
        </mxCell>
        <mxCell id="7E4y---loc7PawPUPzIR-335" value="quantity" style="shape=partialRectangle;connectable=0;fillColor=none;top=0;left=0;bottom=0;right=0;align=left;spacingLeft=6;overflow=hidden;whiteSpace=wrap;html=1;rounded=1;strokeColor=#788AA3;fontColor=#46495D;labelBackgroundColor=none;fontFamily=Times New Roman;swimlaneFillColor=none;strokeWidth=0;" vertex="1" parent="7E4y---loc7PawPUPzIR-333">
          <mxGeometry x="30" width="150" height="30" as="geometry">
            <mxRectangle width="150" height="30" as="alternateBounds" />
          </mxGeometry>
        </mxCell>
        <mxCell id="7E4y---loc7PawPUPzIR-336" value="" style="shape=tableRow;horizontal=0;startSize=0;swimlaneHead=0;swimlaneBody=0;fillColor=none;collapsible=0;dropTarget=0;points=[[0,0.5],[1,0.5]];portConstraint=eastwest;top=0;left=0;right=0;bottom=0;rounded=1;strokeColor=#788AA3;fontColor=#46495D;labelBackgroundColor=none;fontFamily=Times New Roman;swimlaneFillColor=none;strokeWidth=0;" vertex="1" parent="7E4y---loc7PawPUPzIR-323">
          <mxGeometry y="140" width="180" height="30" as="geometry" />
        </mxCell>
        <mxCell id="7E4y---loc7PawPUPzIR-337" value="" style="shape=partialRectangle;connectable=0;fillColor=none;top=0;left=0;bottom=0;right=0;editable=1;overflow=hidden;whiteSpace=wrap;html=1;rounded=1;strokeColor=#788AA3;fontColor=#46495D;labelBackgroundColor=none;fontFamily=Times New Roman;swimlaneFillColor=none;strokeWidth=0;" vertex="1" parent="7E4y---loc7PawPUPzIR-336">
          <mxGeometry width="30" height="30" as="geometry">
            <mxRectangle width="30" height="30" as="alternateBounds" />
          </mxGeometry>
        </mxCell>
        <mxCell id="7E4y---loc7PawPUPzIR-338" value="price" style="shape=partialRectangle;connectable=0;fillColor=none;top=0;left=0;bottom=0;right=0;align=left;spacingLeft=6;overflow=hidden;whiteSpace=wrap;html=1;rounded=1;strokeColor=#788AA3;fontColor=#46495D;labelBackgroundColor=none;fontFamily=Times New Roman;swimlaneFillColor=none;strokeWidth=0;" vertex="1" parent="7E4y---loc7PawPUPzIR-336">
          <mxGeometry x="30" width="150" height="30" as="geometry">
            <mxRectangle width="150" height="30" as="alternateBounds" />
          </mxGeometry>
        </mxCell>
        <mxCell id="7E4y---loc7PawPUPzIR-339" value="shipping_method" style="shape=table;startSize=30;container=1;collapsible=1;childLayout=tableLayout;fixedRows=1;rowLines=0;fontStyle=1;align=center;resizeLast=1;html=1;rounded=1;strokeColor=#666666;fillColor=#f5f5f5;labelBackgroundColor=none;fontFamily=Times New Roman;swimlaneFillColor=none;strokeWidth=0;gradientColor=#b3b3b3;" vertex="1" parent="1">
          <mxGeometry x="-28.00000000000002" y="95" width="180" height="120" as="geometry" />
        </mxCell>
        <mxCell id="7E4y---loc7PawPUPzIR-340" value="" style="shape=tableRow;horizontal=0;startSize=0;swimlaneHead=0;swimlaneBody=0;fillColor=none;collapsible=0;dropTarget=0;points=[[0,0.5],[1,0.5]];portConstraint=eastwest;top=0;left=0;right=0;bottom=1;rounded=1;strokeColor=#788AA3;fontColor=#46495D;labelBackgroundColor=none;fontFamily=Times New Roman;swimlaneFillColor=none;strokeWidth=0;" vertex="1" parent="7E4y---loc7PawPUPzIR-339">
          <mxGeometry y="30" width="180" height="30" as="geometry" />
        </mxCell>
        <mxCell id="7E4y---loc7PawPUPzIR-341" value="PK" style="shape=partialRectangle;connectable=0;fillColor=none;top=0;left=0;bottom=0;right=0;fontStyle=1;overflow=hidden;whiteSpace=wrap;html=1;rounded=1;strokeColor=#788AA3;fontColor=#46495D;labelBackgroundColor=none;fontFamily=Times New Roman;swimlaneFillColor=none;strokeWidth=0;" vertex="1" parent="7E4y---loc7PawPUPzIR-340">
          <mxGeometry width="30" height="30" as="geometry">
            <mxRectangle width="30" height="30" as="alternateBounds" />
          </mxGeometry>
        </mxCell>
        <mxCell id="7E4y---loc7PawPUPzIR-342" value="method_id" style="shape=partialRectangle;connectable=0;fillColor=none;top=0;left=0;bottom=0;right=0;align=left;spacingLeft=6;fontStyle=5;overflow=hidden;whiteSpace=wrap;html=1;rounded=1;strokeColor=#788AA3;fontColor=#46495D;labelBackgroundColor=none;fontFamily=Times New Roman;swimlaneFillColor=none;strokeWidth=0;" vertex="1" parent="7E4y---loc7PawPUPzIR-340">
          <mxGeometry x="30" width="150" height="30" as="geometry">
            <mxRectangle width="150" height="30" as="alternateBounds" />
          </mxGeometry>
        </mxCell>
        <mxCell id="7E4y---loc7PawPUPzIR-343" value="" style="shape=tableRow;horizontal=0;startSize=0;swimlaneHead=0;swimlaneBody=0;fillColor=none;collapsible=0;dropTarget=0;points=[[0,0.5],[1,0.5]];portConstraint=eastwest;top=0;left=0;right=0;bottom=0;rounded=1;strokeColor=#788AA3;fontColor=#46495D;labelBackgroundColor=none;fontFamily=Times New Roman;swimlaneFillColor=none;strokeWidth=0;" vertex="1" parent="7E4y---loc7PawPUPzIR-339">
          <mxGeometry y="60" width="180" height="30" as="geometry" />
        </mxCell>
        <mxCell id="7E4y---loc7PawPUPzIR-344" value="" style="shape=partialRectangle;connectable=0;fillColor=none;top=0;left=0;bottom=0;right=0;editable=1;overflow=hidden;whiteSpace=wrap;html=1;rounded=1;strokeColor=#788AA3;fontColor=#46495D;labelBackgroundColor=none;fontFamily=Times New Roman;swimlaneFillColor=none;strokeWidth=0;" vertex="1" parent="7E4y---loc7PawPUPzIR-343">
          <mxGeometry width="30" height="30" as="geometry">
            <mxRectangle width="30" height="30" as="alternateBounds" />
          </mxGeometry>
        </mxCell>
        <mxCell id="7E4y---loc7PawPUPzIR-345" value="method_name" style="shape=partialRectangle;connectable=0;fillColor=none;top=0;left=0;bottom=0;right=0;align=left;spacingLeft=6;overflow=hidden;whiteSpace=wrap;html=1;rounded=1;strokeColor=#788AA3;fontColor=#46495D;labelBackgroundColor=none;fontFamily=Times New Roman;swimlaneFillColor=none;strokeWidth=0;" vertex="1" parent="7E4y---loc7PawPUPzIR-343">
          <mxGeometry x="30" width="150" height="30" as="geometry">
            <mxRectangle width="150" height="30" as="alternateBounds" />
          </mxGeometry>
        </mxCell>
        <mxCell id="7E4y---loc7PawPUPzIR-346" value="" style="shape=tableRow;horizontal=0;startSize=0;swimlaneHead=0;swimlaneBody=0;fillColor=none;collapsible=0;dropTarget=0;points=[[0,0.5],[1,0.5]];portConstraint=eastwest;top=0;left=0;right=0;bottom=0;rounded=1;strokeColor=#788AA3;fontColor=#46495D;labelBackgroundColor=none;fontFamily=Times New Roman;swimlaneFillColor=none;strokeWidth=0;" vertex="1" parent="7E4y---loc7PawPUPzIR-339">
          <mxGeometry y="90" width="180" height="30" as="geometry" />
        </mxCell>
        <mxCell id="7E4y---loc7PawPUPzIR-347" value="" style="shape=partialRectangle;connectable=0;fillColor=none;top=0;left=0;bottom=0;right=0;editable=1;overflow=hidden;whiteSpace=wrap;html=1;rounded=1;strokeColor=#788AA3;fontColor=#46495D;labelBackgroundColor=none;fontFamily=Times New Roman;swimlaneFillColor=none;strokeWidth=0;" vertex="1" parent="7E4y---loc7PawPUPzIR-346">
          <mxGeometry width="30" height="30" as="geometry">
            <mxRectangle width="30" height="30" as="alternateBounds" />
          </mxGeometry>
        </mxCell>
        <mxCell id="7E4y---loc7PawPUPzIR-348" value="cost" style="shape=partialRectangle;connectable=0;fillColor=none;top=0;left=0;bottom=0;right=0;align=left;spacingLeft=6;overflow=hidden;whiteSpace=wrap;html=1;rounded=1;strokeColor=#788AA3;fontColor=#46495D;labelBackgroundColor=none;fontFamily=Times New Roman;swimlaneFillColor=none;strokeWidth=0;" vertex="1" parent="7E4y---loc7PawPUPzIR-346">
          <mxGeometry x="30" width="150" height="30" as="geometry">
            <mxRectangle width="150" height="30" as="alternateBounds" />
          </mxGeometry>
        </mxCell>
        <mxCell id="7E4y---loc7PawPUPzIR-352" value="" style="edgeStyle=orthogonalEdgeStyle;fontSize=12;html=1;endArrow=ERoneToMany;rounded=0;strokeColor=#788AA3;fontColor=default;startSize=8;endSize=8;exitX=1;exitY=0.5;exitDx=0;exitDy=0;entryX=0;entryY=0.5;entryDx=0;entryDy=0;labelBackgroundColor=none;" edge="1" parent="1" source="7E4y---loc7PawPUPzIR-111" target="7E4y---loc7PawPUPzIR-173">
          <mxGeometry width="100" height="100" relative="1" as="geometry">
            <mxPoint x="-569" y="63" as="sourcePoint" />
            <mxPoint x="-469" y="-37" as="targetPoint" />
          </mxGeometry>
        </mxCell>
        <mxCell id="7E4y---loc7PawPUPzIR-353" value="" style="edgeStyle=orthogonalEdgeStyle;fontSize=12;html=1;endArrow=ERoneToMany;rounded=0;strokeColor=#788AA3;fontColor=default;startSize=8;endSize=8;entryX=1;entryY=0.25;entryDx=0;entryDy=0;exitX=1;exitY=0.5;exitDx=0;exitDy=0;curved=0;labelBackgroundColor=none;" edge="1" parent="1" source="7E4y---loc7PawPUPzIR-114" target="7E4y---loc7PawPUPzIR-182">
          <mxGeometry width="100" height="100" relative="1" as="geometry">
            <mxPoint x="-395" y="57" as="sourcePoint" />
            <mxPoint x="-295" y="-43" as="targetPoint" />
          </mxGeometry>
        </mxCell>
        <mxCell id="7E4y---loc7PawPUPzIR-354" value="" style="edgeStyle=entityRelationEdgeStyle;fontSize=12;html=1;endArrow=ERmany;startArrow=ERmany;rounded=0;strokeColor=#788AA3;fontColor=default;startSize=8;endSize=8;curved=0;entryX=0;entryY=0.5;entryDx=0;entryDy=0;exitX=1;exitY=0.5;exitDx=0;exitDy=0;labelBackgroundColor=none;" edge="1" parent="1" source="7E4y---loc7PawPUPzIR-156" target="7E4y---loc7PawPUPzIR-114">
          <mxGeometry width="100" height="100" relative="1" as="geometry">
            <mxPoint x="-418" y="-245" as="sourcePoint" />
            <mxPoint x="-318" y="-345" as="targetPoint" />
          </mxGeometry>
        </mxCell>
        <mxCell id="7E4y---loc7PawPUPzIR-355" value="" style="edgeStyle=entityRelationEdgeStyle;fontSize=12;html=1;endArrow=ERmany;startArrow=ERmany;rounded=0;strokeColor=#788AA3;fontColor=default;startSize=8;endSize=8;curved=0;labelBackgroundColor=none;exitX=1;exitY=0.25;exitDx=0;exitDy=0;" edge="1" parent="1" source="7E4y---loc7PawPUPzIR-155" target="7E4y---loc7PawPUPzIR-142">
          <mxGeometry width="100" height="100" relative="1" as="geometry">
            <mxPoint x="-346.44" y="-869.1" as="sourcePoint" />
            <mxPoint x="-164.99539220473338" y="-844.1079560259649" as="targetPoint" />
          </mxGeometry>
        </mxCell>
        <mxCell id="7E4y---loc7PawPUPzIR-357" value="" style="edgeStyle=entityRelationEdgeStyle;fontSize=12;html=1;endArrow=ERmany;startArrow=ERmany;rounded=0;strokeColor=#788AA3;fontColor=#46495D;startSize=8;endSize=8;curved=0;fillColor=#B2C9AB;entryX=1;entryY=0.5;entryDx=0;entryDy=0;" edge="1" parent="1" source="7E4y---loc7PawPUPzIR-221" target="7E4y---loc7PawPUPzIR-205">
          <mxGeometry width="100" height="100" relative="1" as="geometry">
            <mxPoint x="-332" y="1262" as="sourcePoint" />
            <mxPoint x="-288" y="1100" as="targetPoint" />
            <Array as="points">
              <mxPoint x="-256" y="1234" />
            </Array>
          </mxGeometry>
        </mxCell>
        <mxCell id="7E4y---loc7PawPUPzIR-358" value="" style="edgeStyle=entityRelationEdgeStyle;fontSize=12;html=1;endArrow=ERmany;startArrow=ERmany;rounded=0;strokeColor=#788AA3;fontColor=#46495D;startSize=8;endSize=8;curved=0;fillColor=#B2C9AB;exitX=1;exitY=0.5;exitDx=0;exitDy=0;entryX=1;entryY=0.5;entryDx=0;entryDy=0;" edge="1" parent="1" source="7E4y---loc7PawPUPzIR-225" target="7E4y---loc7PawPUPzIR-272">
          <mxGeometry width="100" height="100" relative="1" as="geometry">
            <mxPoint x="53" y="987" as="sourcePoint" />
            <mxPoint x="-78" y="1033" as="targetPoint" />
            <Array as="points">
              <mxPoint x="-246" y="1244" />
              <mxPoint x="10" y="1128" />
            </Array>
          </mxGeometry>
        </mxCell>
        <mxCell id="7E4y---loc7PawPUPzIR-359" value="" style="edgeStyle=entityRelationEdgeStyle;fontSize=12;html=1;endArrow=ERoneToMany;rounded=0;strokeColor=#788AA3;fontColor=#46495D;startSize=8;endSize=8;curved=0;fillColor=#B2C9AB;exitX=1;exitY=0.5;exitDx=0;exitDy=0;entryX=1;entryY=0.25;entryDx=0;entryDy=0;" edge="1" parent="1" source="7E4y---loc7PawPUPzIR-228" target="7E4y---loc7PawPUPzIR-284">
          <mxGeometry width="100" height="100" relative="1" as="geometry">
            <mxPoint x="487" y="-53" as="sourcePoint" />
            <mxPoint x="487" y="105" as="targetPoint" />
            <Array as="points">
              <mxPoint x="65" y="1518.5" />
            </Array>
          </mxGeometry>
        </mxCell>
        <mxCell id="7E4y---loc7PawPUPzIR-361" value="country" style="shape=table;startSize=30;container=1;collapsible=1;childLayout=tableLayout;fixedRows=1;rowLines=0;fontStyle=1;align=center;resizeLast=1;html=1;rounded=1;strokeColor=#666666;fillColor=#f5f5f5;labelBackgroundColor=none;fontFamily=Times New Roman;swimlaneFillColor=none;strokeWidth=0;gradientColor=#b3b3b3;" vertex="1" parent="1">
          <mxGeometry x="462" y="-361" width="180" height="90" as="geometry" />
        </mxCell>
        <mxCell id="7E4y---loc7PawPUPzIR-362" value="" style="shape=tableRow;horizontal=0;startSize=0;swimlaneHead=0;swimlaneBody=0;fillColor=none;collapsible=0;dropTarget=0;points=[[0,0.5],[1,0.5]];portConstraint=eastwest;top=0;left=0;right=0;bottom=1;rounded=1;strokeColor=#788AA3;fontColor=#46495D;labelBackgroundColor=none;fontFamily=Times New Roman;swimlaneFillColor=none;strokeWidth=0;" vertex="1" parent="7E4y---loc7PawPUPzIR-361">
          <mxGeometry y="30" width="180" height="30" as="geometry" />
        </mxCell>
        <mxCell id="7E4y---loc7PawPUPzIR-363" value="PK" style="shape=partialRectangle;connectable=0;fillColor=none;top=0;left=0;bottom=0;right=0;fontStyle=1;overflow=hidden;whiteSpace=wrap;html=1;rounded=1;strokeColor=#788AA3;fontColor=#46495D;labelBackgroundColor=none;fontFamily=Times New Roman;swimlaneFillColor=none;strokeWidth=0;" vertex="1" parent="7E4y---loc7PawPUPzIR-362">
          <mxGeometry width="30" height="30" as="geometry">
            <mxRectangle width="30" height="30" as="alternateBounds" />
          </mxGeometry>
        </mxCell>
        <mxCell id="7E4y---loc7PawPUPzIR-364" value="country_id" style="shape=partialRectangle;connectable=0;fillColor=none;top=0;left=0;bottom=0;right=0;align=left;spacingLeft=6;fontStyle=5;overflow=hidden;whiteSpace=wrap;html=1;rounded=1;strokeColor=#788AA3;fontColor=#46495D;labelBackgroundColor=none;fontFamily=Times New Roman;swimlaneFillColor=none;strokeWidth=0;" vertex="1" parent="7E4y---loc7PawPUPzIR-362">
          <mxGeometry x="30" width="150" height="30" as="geometry">
            <mxRectangle width="150" height="30" as="alternateBounds" />
          </mxGeometry>
        </mxCell>
        <mxCell id="7E4y---loc7PawPUPzIR-365" value="" style="shape=tableRow;horizontal=0;startSize=0;swimlaneHead=0;swimlaneBody=0;fillColor=none;collapsible=0;dropTarget=0;points=[[0,0.5],[1,0.5]];portConstraint=eastwest;top=0;left=0;right=0;bottom=0;rounded=1;strokeColor=#788AA3;fontColor=#46495D;labelBackgroundColor=none;fontFamily=Times New Roman;swimlaneFillColor=none;strokeWidth=0;" vertex="1" parent="7E4y---loc7PawPUPzIR-361">
          <mxGeometry y="60" width="180" height="30" as="geometry" />
        </mxCell>
        <mxCell id="7E4y---loc7PawPUPzIR-366" value="" style="shape=partialRectangle;connectable=0;fillColor=none;top=0;left=0;bottom=0;right=0;editable=1;overflow=hidden;whiteSpace=wrap;html=1;rounded=1;strokeColor=#788AA3;fontColor=#46495D;labelBackgroundColor=none;fontFamily=Times New Roman;swimlaneFillColor=none;strokeWidth=0;" vertex="1" parent="7E4y---loc7PawPUPzIR-365">
          <mxGeometry width="30" height="30" as="geometry">
            <mxRectangle width="30" height="30" as="alternateBounds" />
          </mxGeometry>
        </mxCell>
        <mxCell id="7E4y---loc7PawPUPzIR-367" value="country_name" style="shape=partialRectangle;connectable=0;fillColor=none;top=0;left=0;bottom=0;right=0;align=left;spacingLeft=6;overflow=hidden;whiteSpace=wrap;html=1;rounded=1;strokeColor=#788AA3;fontColor=#46495D;labelBackgroundColor=none;fontFamily=Times New Roman;swimlaneFillColor=none;strokeWidth=0;" vertex="1" parent="7E4y---loc7PawPUPzIR-365">
          <mxGeometry x="30" width="150" height="30" as="geometry">
            <mxRectangle width="150" height="30" as="alternateBounds" />
          </mxGeometry>
        </mxCell>
        <mxCell id="7E4y---loc7PawPUPzIR-368" value="" style="edgeStyle=entityRelationEdgeStyle;fontSize=12;html=1;endArrow=ERoneToMany;rounded=0;strokeColor=#788AA3;fontColor=#46495D;startSize=8;endSize=8;curved=0;fillColor=#B2C9AB;entryX=0;entryY=0.25;entryDx=0;entryDy=0;exitX=1;exitY=0.5;exitDx=0;exitDy=0;" edge="1" parent="1" source="7E4y---loc7PawPUPzIR-269" target="7E4y---loc7PawPUPzIR-361">
          <mxGeometry width="100" height="100" relative="1" as="geometry">
            <mxPoint x="409" y="-152" as="sourcePoint" />
            <mxPoint x="441" y="-343" as="targetPoint" />
          </mxGeometry>
        </mxCell>
        <mxCell id="7E4y---loc7PawPUPzIR-375" value="" style="edgeStyle=entityRelationEdgeStyle;fontSize=12;html=1;endArrow=ERoneToMany;rounded=0;strokeColor=#788AA3;fontColor=#46495D;startSize=8;endSize=8;curved=0;fillColor=#B2C9AB;entryX=0.996;entryY=0.113;entryDx=0;entryDy=0;entryPerimeter=0;exitX=0.025;exitY=0.092;exitDx=0;exitDy=0;exitPerimeter=0;" edge="1" parent="1" source="7E4y---loc7PawPUPzIR-195" target="7E4y---loc7PawPUPzIR-304">
          <mxGeometry width="100" height="100" relative="1" as="geometry">
            <mxPoint x="-789" y="479" as="sourcePoint" />
            <mxPoint x="-689" y="379" as="targetPoint" />
          </mxGeometry>
        </mxCell>
        <mxCell id="7E4y---loc7PawPUPzIR-376" value="" style="edgeStyle=entityRelationEdgeStyle;fontSize=12;html=1;endArrow=ERoneToMany;rounded=0;strokeColor=#788AA3;fontColor=#46495D;startSize=8;endSize=8;curved=0;fillColor=#B2C9AB;exitX=0.008;exitY=0.146;exitDx=0;exitDy=0;exitPerimeter=0;entryX=1;entryY=0.5;entryDx=0;entryDy=0;" edge="1" parent="1" source="7E4y---loc7PawPUPzIR-339" target="7E4y---loc7PawPUPzIR-314">
          <mxGeometry width="100" height="100" relative="1" as="geometry">
            <mxPoint x="-393" y="305" as="sourcePoint" />
            <mxPoint x="-293" y="205" as="targetPoint" />
          </mxGeometry>
        </mxCell>
        <mxCell id="7E4y---loc7PawPUPzIR-377" value="" style="edgeStyle=entityRelationEdgeStyle;fontSize=12;html=1;endArrow=ERoneToMany;rounded=0;strokeColor=#788AA3;fontColor=#46495D;startSize=8;endSize=8;curved=0;fillColor=#B2C9AB;exitX=0;exitY=0.5;exitDx=0;exitDy=0;entryX=1;entryY=0.5;entryDx=0;entryDy=0;" edge="1" parent="1" source="7E4y---loc7PawPUPzIR-308" target="7E4y---loc7PawPUPzIR-330">
          <mxGeometry width="100" height="100" relative="1" as="geometry">
            <mxPoint x="-704" y="532" as="sourcePoint" />
            <mxPoint x="-604" y="432" as="targetPoint" />
            <Array as="points">
              <mxPoint x="-852" y="621" />
            </Array>
          </mxGeometry>
        </mxCell>
        <mxCell id="7E4y---loc7PawPUPzIR-378" value="" style="edgeStyle=entityRelationEdgeStyle;fontSize=12;html=1;endArrow=ERoneToMany;rounded=0;strokeColor=#788AA3;fontColor=#46495D;startSize=8;endSize=8;curved=0;fillColor=#B2C9AB;entryX=1;entryY=0.5;entryDx=0;entryDy=0;exitX=0;exitY=0.5;exitDx=0;exitDy=0;" edge="1" parent="1" source="7E4y---loc7PawPUPzIR-117" target="7E4y---loc7PawPUPzIR-327">
          <mxGeometry width="100" height="100" relative="1" as="geometry">
            <mxPoint x="-704" y="30" as="sourcePoint" />
            <mxPoint x="-604" y="-70" as="targetPoint" />
            <Array as="points">
              <mxPoint x="-852" y="119" />
            </Array>
          </mxGeometry>
        </mxCell>
      </root>
    </mxGraphModel>
  </diagram>
</mxfile>
